<svg width="42" height="40" viewBox="0 0 42 40" fill="none" xmlns="http://www.w3.org/2000/svg">
<path d="M33.0684 4C36.7637 7.30441 39.0908 12.1076 39.0908 17.4551C39.0906 27.421 31.0118 35.4997 21.0459 35.5C11.0798 35.5 3.00018 27.4211 3 17.4551C3 12.1079 5.32642 7.3044 9.02148 4C11.9073 7.4173 16.2229 9.58887 21.0459 9.58887C25.8685 9.58873 30.1827 7.4169 33.0684 4ZM21.0449 26.2461C20.3424 26.2464 19.6396 26.9298 19.1963 27.4658C18.8859 27.8416 18.8629 28.3635 19.1074 28.7852C19.5843 29.6071 20.4201 30.8724 21.0449 30.873C21.6698 30.873 22.5064 29.6073 22.9834 28.7852C23.2279 28.3635 23.2049 27.8416 22.8945 27.4658C22.4511 26.9296 21.7476 26.2461 21.0449 26.2461ZM6.7207 16.4365C8.22341 17.3474 9.48428 18.6071 10.3975 20.1084L10.9043 20.9414L11.2236 21.5225C12.6823 24.1784 16.0769 25.0566 18.6406 23.4414L18.6309 21.3574L7.5 15.2861L6.7207 16.4365ZM23.3809 21.3574L23.3711 23.4414C25.9348 25.0565 29.3294 24.1784 30.7881 21.5225L31.1074 20.9414L31.6133 20.1084C32.5265 18.6069 33.7881 17.3474 35.291 16.4365L34.5117 15.2861L23.3809 21.3574Z" fill="white"/>
</svg>
