<svg width="18" height="18" viewBox="0 0 18 18" fill="none" xmlns="http://www.w3.org/2000/svg">
<g clip-path="url(#clip0_779_983)">
<mask id="mask0_779_983" style="mask-type:luminance" maskUnits="userSpaceOnUse" x="0" y="0" width="18" height="18">
<path d="M0 0.399902H17.5V17.8999H0V0.399902Z" fill="white"/>
</mask>
<g mask="url(#mask0_779_983)">
<path fill-rule="evenodd" clip-rule="evenodd" d="M17.5 9.1499C17.5 13.9821 13.5822 17.8999 8.75 17.8999C3.91781 17.8999 0 13.9821 0 9.1499C0 4.31772 3.91781 0.399902 8.75 0.399902C13.5822 0.399902 17.5 4.31772 17.5 9.1499ZM9.06354 6.85959C8.21285 7.21348 6.51194 7.94605 3.96083 9.0573C3.54667 9.22209 3.32962 9.38324 3.30969 9.54074C3.27615 9.80761 3.6101 9.91261 4.06365 10.0548L4.25542 10.116C4.7024 10.2612 5.30323 10.431 5.61531 10.4376C5.89872 10.4434 6.21517 10.3268 6.56469 10.0876C8.9476 8.47858 10.1777 7.66532 10.255 7.64782C10.3097 7.63542 10.3855 7.61938 10.4366 7.66532C10.4876 7.71053 10.4825 7.79657 10.4774 7.8199C10.4439 7.96063 9.13573 9.17761 8.4576 9.80761C8.24615 10.0038 8.09667 10.143 8.06604 10.1751C7.99653 10.2456 7.92799 10.3134 7.86042 10.3785C7.44479 10.7781 7.13417 11.0785 7.87792 11.5685C8.23521 11.8041 8.52104 11.9988 8.80615 12.1927C9.1175 12.4049 9.42813 12.6164 9.83063 12.8803C9.93271 12.9484 10.0311 13.0164 10.1259 13.0845C10.4883 13.3433 10.8143 13.5752 11.2168 13.5388C11.4501 13.5169 11.6922 13.2974 11.8147 12.6419C12.1042 11.0917 12.6744 7.73459 12.8064 6.35063C12.8151 6.23574 12.8102 6.12021 12.7918 6.00646C12.7816 5.91441 12.7367 5.82968 12.6664 5.76949C12.5621 5.68417 12.4002 5.66594 12.3273 5.6674C11.9984 5.67324 11.4939 5.84897 9.06354 6.85959Z" fill="#5259D8"/>
</g>
</g>
<defs>
<clipPath id="clip0_779_983">
<rect width="17.5" height="17.5" fill="white" transform="translate(0 0.399902)"/>
</clipPath>
</defs>
</svg>
