<svg width="16" height="16" viewBox="0 0 16 16" fill="none" xmlns="http://www.w3.org/2000/svg">
<path d="M11.5835 7.7501C11.5805 7.42129 11.448 7.10692 11.2147 6.87511L8.5335 4.1876C8.4164 4.0712 8.25799 4.00586 8.09287 4.00586C7.92776 4.00586 7.76935 4.0712 7.65225 4.1876C7.59367 4.24571 7.54717 4.31483 7.51544 4.39099C7.48371 4.46716 7.46737 4.54885 7.46737 4.63135C7.46737 4.71386 7.48371 4.79555 7.51544 4.87172C7.54717 4.94788 7.59367 5.017 7.65225 5.0751L9.7085 7.1251H3.4585C3.29274 7.1251 3.13376 7.19095 3.01655 7.30816C2.89934 7.42537 2.8335 7.58434 2.8335 7.7501C2.8335 7.91587 2.89934 8.07484 3.01655 8.19205C3.13376 8.30926 3.29274 8.3751 3.4585 8.3751H9.7085L7.65225 10.4314C7.53456 10.5482 7.46811 10.707 7.46752 10.8729C7.46694 11.0387 7.53226 11.198 7.64912 11.3157C7.76598 11.4334 7.92481 11.4999 8.09066 11.5005C8.25651 11.501 8.41581 11.4357 8.5335 11.3189L11.2147 8.63135C11.4495 8.39801 11.5821 8.08109 11.5835 7.7501Z" fill="white"/>
</svg>
