<svg width="15" height="15" viewBox="0 0 15 15" fill="none" xmlns="http://www.w3.org/2000/svg">
<g clip-path="url(#clip0_1853_1661)">
<path d="M11.875 1.25H3.125C1.4 1.25 0 2.65 0 4.375V10.625C0 12.35 1.4 13.75 3.125 13.75H7.5C7.84375 13.75 8.125 13.4688 8.125 13.125C8.125 12.7812 7.84375 12.5 7.5 12.5H3.125C2.09375 12.5 1.25 11.6562 1.25 10.625V5.625H13.75V8.75C13.75 9.09375 14.0312 9.375 14.375 9.375C14.7188 9.375 15 9.09375 15 8.75V4.375C15 2.65 13.6 1.25 11.875 1.25ZM1.25 4.375C1.25 3.34375 2.09375 2.5 3.125 2.5H11.875C12.9062 2.5 13.75 3.34375 13.75 4.375H1.25ZM10.2563 7.60625C9.78125 7.13125 9.15625 6.875 8.4875 6.875H7.49375C7.15 6.875 6.86875 7.15625 6.86875 7.5V8.49375C6.86875 9.1625 7.13125 9.7875 7.6 10.2625L11.7938 14.4562C12.15 14.8125 12.6187 15.0063 13.1187 15.0063C13.6187 15.0063 14.0875 14.8125 14.4438 14.4562C14.8 14.1 14.9937 13.6313 14.9937 13.1313C14.9937 12.6313 14.8 12.1625 14.4438 11.8062L10.25 7.6125L10.2563 7.60625ZM13.5625 13.5687C13.325 13.8062 12.9125 13.8062 12.6813 13.5687L8.4875 9.375C8.25 9.1375 8.11875 8.825 8.11875 8.49375V8.125H8.4875C8.81875 8.125 9.1375 8.25625 9.36875 8.49375L13.5625 12.6875C13.6813 12.8062 13.7437 12.9625 13.7437 13.1313C13.7437 13.3 13.6813 13.4562 13.5625 13.575V13.5687Z" fill="#454554"/>
</g>
<defs>
<clipPath id="clip0_1853_1661">
<rect width="15" height="15" fill="white"/>
</clipPath>
</defs>
</svg>
