<svg width="15" height="15" viewBox="0 0 15 15" fill="none" xmlns="http://www.w3.org/2000/svg">
<g clip-path="url(#clip0_1808_1937)">
<path d="M14.575 2.5625C14.2188 2.125 13.6875 1.875 13.125 1.875H4.525L4.5 1.65625C4.3875 0.7125 3.5875 0 2.6375 0H1.875C1.53125 0 1.25 0.28125 1.25 0.625C1.25 0.96875 1.53125 1.25 1.875 1.25H2.6375C2.95625 1.25 3.21875 1.4875 3.25625 1.8L4.11875 9.1125C4.30625 10.6875 5.6375 11.875 7.225 11.875H12.5C12.8438 11.875 13.125 11.5938 13.125 11.25C13.125 10.9062 12.8438 10.625 12.5 10.625H7.225C6.41875 10.625 5.71875 10.1125 5.45625 9.375H11.35C12.8375 9.375 14.125 8.31875 14.4125 6.8625L14.9625 4.11875C15.075 3.56875 14.9313 3 14.575 2.5625ZM13.7375 3.875L13.1875 6.61875C13.0125 7.49375 12.2375 8.125 11.35 8.125H5.2625L4.675 3.125H13.125C13.3125 3.125 13.4875 3.20625 13.6063 3.35625C13.725 3.5 13.775 3.69375 13.7375 3.875ZM6.875 13.75C6.875 14.4375 6.3125 15 5.625 15C4.9375 15 4.375 14.4375 4.375 13.75C4.375 13.0625 4.9375 12.5 5.625 12.5C6.3125 12.5 6.875 13.0625 6.875 13.75ZM12.5 13.75C12.5 14.4375 11.9375 15 11.25 15C10.5625 15 10 14.4375 10 13.75C10 13.0625 10.5625 12.5 11.25 12.5C11.9375 12.5 12.5 13.0625 12.5 13.75ZM0 3.75C0 3.40625 0.28125 3.125 0.625 3.125H1.5875C1.93125 3.125 2.2125 3.40625 2.2125 3.75C2.2125 4.09375 1.93125 4.375 1.5875 4.375H0.625C0.28125 4.375 0 4.09375 0 3.75ZM0 6.25C0 5.90625 0.28125 5.625 0.625 5.625H1.875C2.21875 5.625 2.5 5.90625 2.5 6.25C2.5 6.59375 2.21875 6.875 1.875 6.875H0.625C0.28125 6.875 0 6.59375 0 6.25ZM3.125 8.75C3.125 9.09375 2.84375 9.375 2.5 9.375H0.625C0.28125 9.375 0 9.09375 0 8.75C0 8.40625 0.28125 8.125 0.625 8.125H2.5C2.84375 8.125 3.125 8.40625 3.125 8.75Z" fill="#454554"/>
</g>
<defs>
<clipPath id="clip0_1808_1937">
<rect width="15" height="15" fill="white"/>
</clipPath>
</defs>
</svg>
