<svg width="9" height="10" viewBox="0 0 9 10" fill="none" xmlns="http://www.w3.org/2000/svg">
<g clip-path="url(#clip0_1877_1671)">
<path d="M4.125 6.31229C4.125 6.82942 3.70463 7.24979 3.1875 7.24979C2.67038 7.24979 2.25 6.82942 2.25 6.31229C2.25 5.79517 2.67038 5.37479 3.1875 5.37479C3.70463 5.37479 4.125 5.79517 4.125 6.31229ZM7.73888 4.10167C7.62563 4.28204 7.515 4.45829 7.41263 4.62479H7.686C8.0295 4.62479 8.34525 4.81229 8.5095 5.11379C8.67413 5.41604 8.661 5.78279 8.47463 6.07229C7.40925 7.72942 5.46113 9.50017 3.1875 9.50017C2.33625 9.50017 1.536 9.16867 0.933375 8.56679C0.3315 7.96454 0 7.16392 0 6.31267C0 4.03904 1.77075 2.09054 3.42788 1.02479C3.717 0.839165 4.0845 0.825665 4.38638 0.99029C4.68788 1.15454 4.87538 1.47029 4.87538 1.81379V2.08717C5.0415 1.98479 5.21775 1.87417 5.3985 1.76092C6.177 1.27304 6.9825 0.768665 7.467 0.578915C7.88813 0.41354 8.34863 0.510665 8.66925 0.83129C8.98988 1.15192 9.08663 1.61279 8.92163 2.03354C8.73188 2.51804 8.22713 3.32279 7.73963 4.10204L7.73888 4.10167ZM4.875 6.31229C4.875 5.38192 4.11788 4.62479 3.1875 4.62479C2.25713 4.62479 1.5 5.38192 1.5 6.31229C1.5 7.24267 2.25713 7.99979 3.1875 7.99979C4.11788 7.99979 4.875 7.24267 4.875 6.31229Z" fill="#FFD4B6"/>
</g>
<defs>
<clipPath id="clip0_1877_1671">
<rect width="9" height="9" fill="white" transform="translate(0 0.5)"/>
</clipPath>
</defs>
</svg>
