<svg width="1920" height="874" viewBox="0 0 1920 874" fill="none" xmlns="http://www.w3.org/2000/svg">
<mask id="path-1-inside-1_2_703" fill="white">
<path d="M1146 696C1146 683.85 1155.85 674 1168 674H1379C1391.15 674 1401 683.85 1401 696V874H1146V696Z"/>
</mask>
<path d="M1144 696C1144 682.745 1154.75 672 1168 672H1379C1392.25 672 1403 682.745 1403 696H1399C1399 684.954 1390.05 676 1379 676H1168C1156.95 676 1148 684.954 1148 696H1144ZM1401 874H1146H1401ZM1144 874V696C1144 682.745 1154.75 672 1168 672V676C1156.95 676 1148 684.954 1148 696V874H1144ZM1379 672C1392.25 672 1403 682.745 1403 696V874H1399V696C1399 684.954 1390.05 676 1379 676V672Z" fill="url(#paint0_linear_2_703)" mask="url(#path-1-inside-1_2_703)"/>
<mask id="path-3-inside-2_2_703" fill="white">
<path d="M204 743.962C204 735.126 211.163 727.962 220 727.962H444C452.837 727.962 460 735.126 460 743.962V874H204V743.962Z"/>
</mask>
<path d="M202 743.962C202 734.021 210.059 725.962 220 725.962H444C453.941 725.962 462 734.021 462 743.962H458C458 736.23 451.732 729.962 444 729.962H220C212.268 729.962 206 736.23 206 743.962H202ZM460 874H204H460ZM202 874V743.962C202 734.021 210.059 725.962 220 725.962V729.962C212.268 729.962 206 736.23 206 743.962V874H202ZM444 725.962C453.941 725.962 462 734.021 462 743.962V874H458V743.962C458 736.23 451.732 729.962 444 729.962V725.962Z" fill="url(#paint1_linear_2_703)" mask="url(#path-3-inside-2_2_703)"/>
<mask id="path-5-inside-3_2_703" fill="white">
<path d="M828 773.736C828 761.585 837.85 751.736 850 751.736H1074C1086.15 751.736 1096 761.585 1096 773.736V874H828V773.736Z"/>
</mask>
<path d="M826 773.736C826 760.481 836.745 749.736 850 749.736H1074C1087.25 749.736 1098 760.481 1098 773.736H1094C1094 762.69 1085.05 753.736 1074 753.736H850C838.954 753.736 830 762.69 830 773.736H826ZM1096 874H828H1096ZM826 874V773.736C826 760.481 836.745 749.736 850 749.736V753.736C838.954 753.736 830 762.69 830 773.736V874H826ZM1074 749.736C1087.25 749.736 1098 760.481 1098 773.736V874H1094V773.736C1094 762.69 1085.05 753.736 1074 753.736V749.736Z" fill="url(#paint2_linear_2_703)" mask="url(#path-5-inside-3_2_703)"/>
<rect x="511" y="722.849" width="266" height="77.4717" rx="15" stroke="#12121B" stroke-width="2"/>
<mask id="path-8-inside-4_2_703" fill="white">
<path d="M510 834.302C510 825.465 517.163 818.302 526 818.302H762C770.837 818.302 778 825.465 778 834.302V874H510V834.302Z"/>
</mask>
<path d="M508 834.302C508 824.361 516.059 816.302 526 816.302H762C771.941 816.302 780 824.361 780 834.302H776C776 826.57 769.732 820.302 762 820.302H526C518.268 820.302 512 826.57 512 834.302H508ZM778 874H510H778ZM508 874V834.302C508 824.361 516.059 816.302 526 816.302V820.302C518.268 820.302 512 826.57 512 834.302V874H508ZM762 816.302C771.941 816.302 780 824.361 780 834.302V874H776V834.302C776 826.57 769.732 820.302 762 820.302V816.302Z" fill="url(#paint3_linear_2_703)" mask="url(#path-8-inside-4_2_703)"/>
<mask id="path-10-inside-5_2_703" fill="white">
<path d="M-105 690C-105 681.163 -97.8366 674 -89 674H138C146.837 674 154 681.163 154 690V874H-105V690Z"/>
</mask>
<path d="M-107 690C-107 680.059 -98.9411 672 -89 672H138C147.941 672 156 680.059 156 690H152C152 682.268 145.732 676 138 676H-89C-96.732 676 -103 682.268 -103 690H-107ZM154 874H-105H154ZM-107 874V690C-107 680.059 -98.9411 672 -89 672V676C-96.732 676 -103 682.268 -103 690V874H-107ZM138 672C147.941 672 156 680.059 156 690V874H152V690C152 682.268 145.732 676 138 676V672Z" fill="url(#paint4_linear_2_703)" mask="url(#path-10-inside-5_2_703)"/>
<mask id="path-12-inside-6_2_703" fill="white">
<path d="M1451 760.943C1451 752.107 1458.16 744.943 1467 744.943H1690C1698.84 744.943 1706 752.107 1706 760.943V874H1451V760.943Z"/>
</mask>
<path d="M1449 760.943C1449 751.002 1457.06 742.943 1467 742.943H1690C1699.94 742.943 1708 751.002 1708 760.943H1704C1704 753.211 1697.73 746.943 1690 746.943H1467C1459.27 746.943 1453 753.211 1453 760.943H1449ZM1706 874H1451H1706ZM1449 874V760.943C1449 751.002 1457.06 742.943 1467 742.943V746.943C1459.27 746.943 1453 753.211 1453 760.943V874H1449ZM1690 742.943C1699.94 742.943 1708 751.002 1708 760.943V874H1704V760.943C1704 753.211 1697.73 746.943 1690 746.943V742.943Z" fill="url(#paint5_linear_2_703)" mask="url(#path-12-inside-6_2_703)"/>
<path d="M1779 675H1856C1867.6 675 1877 684.402 1877 696V755.604C1877 767.201 1867.6 776.604 1856 776.604H1779C1767.4 776.604 1758 767.201 1758 755.604V696C1758 684.402 1767.4 675 1779 675Z" stroke="#12121B" stroke-width="2"/>
<path d="M1925 675H2002C2013.6 675 2023 684.402 2023 696V755.604C2023 767.201 2013.6 776.604 2002 776.604H1925C1913.4 776.604 1904 767.201 1904 755.604V696C1904 684.402 1913.4 675 1925 675Z" stroke="url(#paint6_linear_2_703)" stroke-width="2"/>
<mask id="path-16-inside-7_2_703" fill="white">
<path d="M1756 822.126C1756 809.976 1765.85 800.126 1778 800.126H1989C2001.15 800.126 2011 809.976 2011 822.126V874H1756V822.126Z"/>
</mask>
<path d="M1754 822.126C1754 808.871 1764.75 798.126 1778 798.126H1989C2002.25 798.126 2013 808.871 2013 822.126H2009C2009 811.081 2000.05 802.126 1989 802.126H1778C1766.95 802.126 1758 811.081 1758 822.126H1754ZM2011 874H1756H2011ZM1754 874V822.126C1754 808.871 1764.75 798.126 1778 798.126V802.126C1766.95 802.126 1758 811.081 1758 822.126V874H1754ZM1989 798.126C2002.25 798.126 2013 808.871 2013 822.126V874H2009V822.126C2009 811.081 2000.05 802.126 1989 802.126V798.126Z" fill="url(#paint7_linear_2_703)" mask="url(#path-16-inside-7_2_703)"/>
<defs>
<linearGradient id="paint0_linear_2_703" x1="1273.5" y1="674" x2="1273.5" y2="874" gradientUnits="userSpaceOnUse">
<stop stop-color="#5B52D8"/>
<stop offset="1" stop-color="#5B52D8" stop-opacity="0.2"/>
</linearGradient>
<linearGradient id="paint1_linear_2_703" x1="332" y1="727.962" x2="332" y2="874" gradientUnits="userSpaceOnUse">
<stop stop-color="#5B52D8"/>
<stop offset="1" stop-color="#5B52D8" stop-opacity="0.2"/>
</linearGradient>
<linearGradient id="paint2_linear_2_703" x1="962" y1="751.736" x2="962" y2="874" gradientUnits="userSpaceOnUse">
<stop stop-color="#12121B"/>
<stop offset="1" stop-color="#12121B" stop-opacity="0.05"/>
</linearGradient>
<linearGradient id="paint3_linear_2_703" x1="644" y1="818.302" x2="644" y2="874" gradientUnits="userSpaceOnUse">
<stop stop-color="#12121B"/>
<stop offset="1" stop-color="#12121B" stop-opacity="0.05"/>
</linearGradient>
<linearGradient id="paint4_linear_2_703" x1="-1.73622e-06" y1="774" x2="154" y2="774" gradientUnits="userSpaceOnUse">
<stop stop-color="#12121B" stop-opacity="0"/>
<stop offset="1" stop-color="#12121B"/>
</linearGradient>
<linearGradient id="paint5_linear_2_703" x1="1578.5" y1="744.943" x2="1578.5" y2="874" gradientUnits="userSpaceOnUse">
<stop stop-color="#12121B"/>
<stop offset="1" stop-color="#12121B" stop-opacity="0.05"/>
</linearGradient>
<linearGradient id="paint6_linear_2_703" x1="1903" y1="725.802" x2="2024" y2="725.802" gradientUnits="userSpaceOnUse">
<stop stop-color="#12121B"/>
<stop offset="1" stop-color="#12121B" stop-opacity="0"/>
</linearGradient>
<linearGradient id="paint7_linear_2_703" x1="1756" y1="837.063" x2="2011" y2="837.063" gradientUnits="userSpaceOnUse">
<stop stop-color="#12121B"/>
<stop offset="1" stop-color="#12121B" stop-opacity="0"/>
</linearGradient>
</defs>
</svg>
