<svg width="16" height="16" viewBox="0 0 16 16" fill="none" xmlns="http://www.w3.org/2000/svg">
<g clip-path="url(#clip0_2098_1737)">
<path d="M10.5002 5.50001C10.3829 5.38284 10.224 5.31702 10.0583 5.31702C9.89255 5.31702 9.73361 5.38284 9.6164 5.50001L8.00015 7.11626L6.3839 5.50001C6.26603 5.38616 6.10815 5.32316 5.94428 5.32459C5.7804 5.32601 5.62365 5.39174 5.50777 5.50762C5.39189 5.6235 5.32615 5.78026 5.32473 5.94413C5.32331 6.10801 5.3863 6.26588 5.50015 6.38376L7.1164 8.00001L5.50015 9.61626C5.3863 9.73413 5.32331 9.89201 5.32473 10.0559C5.32615 10.2198 5.39189 10.3765 5.50777 10.4924C5.62365 10.6083 5.7804 10.674 5.94428 10.6754C6.10815 10.6769 6.26603 10.6139 6.3839 10.5L8.00015 8.88376L9.6164 10.5C9.73428 10.6139 9.89215 10.6769 10.056 10.6754C10.2199 10.674 10.3767 10.6083 10.4925 10.4924C10.6084 10.3765 10.6741 10.2198 10.6756 10.0559C10.677 9.89201 10.614 9.73413 10.5002 9.61626L8.8839 8.00001L10.5002 6.38376C10.6173 6.26655 10.6831 6.10761 10.6831 5.94188C10.6831 5.77616 10.6173 5.61721 10.5002 5.50001Z" fill="#FF4649"/>
<path d="M8 0.5C6.51664 0.5 5.0666 0.939867 3.83323 1.76398C2.59986 2.58809 1.63856 3.75943 1.07091 5.12987C0.50325 6.50032 0.354725 8.00832 0.644114 9.46318C0.933503 10.918 1.64781 12.2544 2.6967 13.3033C3.7456 14.3522 5.08197 15.0665 6.53683 15.3559C7.99168 15.6453 9.49968 15.4968 10.8701 14.9291C12.2406 14.3614 13.4119 13.4001 14.236 12.1668C15.0601 10.9334 15.5 9.48336 15.5 8C15.4979 6.01154 14.707 4.10513 13.3009 2.69907C11.8949 1.29302 9.98847 0.502151 8 0.5ZM8 14.25C6.76387 14.25 5.5555 13.8834 4.52769 13.1967C3.49988 12.5099 2.6988 11.5338 2.22576 10.3918C1.75271 9.24973 1.62894 7.99307 1.8701 6.78069C2.11125 5.56831 2.70651 4.45466 3.58059 3.58058C4.45466 2.7065 5.56831 2.11125 6.78069 1.87009C7.99307 1.62893 9.24974 1.75271 10.3918 2.22575C11.5338 2.6988 12.5099 3.49988 13.1967 4.52769C13.8834 5.55549 14.25 6.76387 14.25 8C14.2482 9.65705 13.5891 11.2457 12.4174 12.4174C11.2457 13.5891 9.65705 14.2482 8 14.25Z" fill="#FF4649"/>
</g>
<defs>
<clipPath id="clip0_2098_1737">
<rect width="15" height="15" fill="white" transform="translate(0.5 0.5)"/>
</clipPath>
</defs>
</svg>
