<svg width="15" height="15" viewBox="0 0 15 15" fill="none" xmlns="http://www.w3.org/2000/svg">
<g clip-path="url(#clip0_1853_1650)">
<path d="M10.0002 5C9.88295 4.88283 9.724 4.81701 9.55828 4.81701C9.39255 4.81701 9.23361 4.88283 9.1164 5L7.50015 6.61625L5.8839 5C5.76603 4.88615 5.60815 4.82316 5.44428 4.82458C5.2804 4.826 5.12365 4.89173 5.00777 5.00761C4.89189 5.12349 4.82615 5.28025 4.82473 5.44412C4.82331 5.608 4.8863 5.76587 5.00015 5.88375L6.6164 7.5L5.00015 9.11625C4.8863 9.23413 4.82331 9.392 4.82473 9.55588C4.82615 9.71975 4.89189 9.87651 5.00777 9.99239C5.12365 10.1083 5.2804 10.174 5.44428 10.1754C5.60815 10.1768 5.76603 10.1138 5.8839 10L7.50015 8.38375L9.1164 10C9.23428 10.1138 9.39215 10.1768 9.55603 10.1754C9.7199 10.174 9.87666 10.1083 9.99254 9.99239C10.1084 9.87651 10.1741 9.71975 10.1756 9.55588C10.177 9.392 10.114 9.23413 10.0002 9.11625L8.3839 7.5L10.0002 5.88375C10.1173 5.76655 10.1831 5.6076 10.1831 5.44188C10.1831 5.27615 10.1173 5.11721 10.0002 5Z" fill="#FF4649"/>
<path d="M7.5 0C6.01664 0 4.5666 0.439867 3.33323 1.26398C2.09986 2.08809 1.13856 3.25943 0.570907 4.62987C0.00324965 6.00032 -0.145275 7.50832 0.144114 8.96318C0.433503 10.418 1.14781 11.7544 2.1967 12.8033C3.2456 13.8522 4.58197 14.5665 6.03683 14.8559C7.49168 15.1453 8.99968 14.9968 10.3701 14.4291C11.7406 13.8614 12.9119 12.9001 13.736 11.6668C14.5601 10.4334 15 8.98336 15 7.5C14.9979 5.51154 14.207 3.60513 12.8009 2.19907C11.3949 0.793018 9.48847 0.00215068 7.5 0ZM7.5 13.75C6.26387 13.75 5.0555 13.3834 4.02769 12.6967C2.99988 12.0099 2.1988 11.0338 1.72576 9.89177C1.25271 8.74973 1.12894 7.49307 1.3701 6.28069C1.61125 5.06831 2.20651 3.95466 3.08059 3.08058C3.95466 2.2065 5.06831 1.61125 6.28069 1.37009C7.49307 1.12893 8.74974 1.25271 9.89178 1.72575C11.0338 2.1988 12.0099 2.99988 12.6967 4.02769C13.3834 5.05549 13.75 6.26387 13.75 7.5C13.7482 9.15705 13.0891 10.7457 11.9174 11.9174C10.7457 13.0891 9.15705 13.7482 7.5 13.75Z" fill="#FF4649"/>
</g>
<defs>
<clipPath id="clip0_1853_1650">
<rect width="15" height="15" fill="white"/>
</clipPath>
</defs>
</svg>
