<svg width="18" height="19" viewBox="0 0 18 19" fill="none" xmlns="http://www.w3.org/2000/svg">
<path d="M8.75 0.899902C13.5825 0.899902 17.5 4.81741 17.5 9.6499C17.5 14.4824 13.5825 18.3999 8.75 18.3999C3.91751 18.3999 0 14.4824 0 9.6499C0 4.81741 3.91751 0.899902 8.75 0.899902ZM10.0322 6.16357C9.95355 6.30782 9.86202 6.49584 9.80078 6.64014C9.10488 6.53523 8.39708 6.53527 7.70117 6.64014C7.63993 6.49145 7.54792 6.30787 7.46484 6.16357C7.46047 6.15482 7.44672 6.15088 7.43359 6.15088C6.77747 6.26464 6.15158 6.46073 5.56543 6.73193C5.56125 6.73213 5.55692 6.73654 5.55273 6.74072C4.36275 8.52133 4.03443 10.2543 4.19629 11.9692C4.19629 11.978 4.20121 11.9863 4.20996 11.9907C4.99743 12.5682 5.75385 12.919 6.50195 13.1509C6.51485 13.1552 6.52766 13.1506 6.53223 13.1421C6.70723 12.9015 6.86535 12.6472 7.00098 12.3804C7.00952 12.363 7.00071 12.3457 6.9834 12.3413C6.73402 12.2451 6.4975 12.1308 6.26562 11.9995C6.2484 11.9906 6.24866 11.9647 6.26172 11.9517C6.30966 11.9168 6.35733 11.8772 6.40527 11.8423C6.41402 11.8335 6.42777 11.834 6.43652 11.8384C7.94134 12.5251 9.56443 12.5251 11.0518 11.8384C11.0605 11.834 11.0743 11.8335 11.083 11.8423C11.1311 11.8816 11.1785 11.9172 11.2266 11.9565C11.2441 11.9697 11.2445 11.9956 11.2227 12.0044C10.9952 12.14 10.7542 12.249 10.5049 12.3452C10.4875 12.3497 10.4829 12.3722 10.4873 12.3853C10.6273 12.6521 10.7855 12.9054 10.9561 13.146C10.9691 13.1503 10.9821 13.1552 10.9951 13.1509C11.7476 12.919 12.5045 12.5682 13.292 11.9907C13.3006 11.9863 13.3047 11.9779 13.3047 11.9692C13.4972 9.98737 12.9861 8.2676 11.9492 6.74072C11.9449 6.73641 11.9402 6.73202 11.9316 6.73193C11.3498 6.46072 10.7196 6.26464 10.0635 6.15088C10.0519 6.15104 10.0403 6.15533 10.0322 6.16357ZM7.22852 9.06885C7.69214 9.069 8.05906 9.48918 8.05469 9.99658C8.05449 10.5082 7.68764 10.9232 7.22852 10.9233C6.77801 10.9233 6.40157 10.5083 6.40137 9.99658C6.40137 9.48471 6.76914 9.06885 7.22852 9.06885ZM10.2773 9.06885C10.7411 9.06885 11.1089 9.48908 11.1045 9.99658C11.1043 10.5083 10.741 10.9233 10.2773 10.9233C9.82697 10.9232 9.45138 10.5082 9.45117 9.99658C9.45117 9.48481 9.8181 9.06902 10.2773 9.06885Z" fill="#5259D8"/>
</svg>
