<svg width="43" height="42" viewBox="0 0 43 42" fill="none" xmlns="http://www.w3.org/2000/svg">
<path opacity="0.2" d="M21.75 7C33.874 7 41.4515 20.125 35.3895 30.625C34.0072 33.0192 32.019 35.0075 29.6248 36.3898C27.2306 37.7722 24.5147 38.4999 21.75 38.5C9.62602 38.5 2.04852 25.375 8.11052 14.875C9.49284 12.4808 11.481 10.4925 13.8753 9.1102C16.2695 7.72785 18.9854 7.00007 21.75 7Z" fill="#5B52D8"/>
<path d="M13.6405 5.19935C13.8726 5.60128 13.9354 6.07894 13.8153 6.52724C13.6952 6.97555 13.4019 7.35777 13 7.58984C11.1795 8.64575 9.56217 10.0183 8.22425 11.6428C8.08077 11.8276 7.90169 11.9818 7.6976 12.0962C7.49352 12.2106 7.26857 12.2829 7.03606 12.3088C6.80354 12.3348 6.56819 12.3138 6.34391 12.2472C6.11963 12.1806 5.91098 12.0698 5.73029 11.9211C5.5496 11.7725 5.40055 11.5892 5.29195 11.382C5.18335 11.1747 5.1174 10.9478 5.098 10.7147C5.07861 10.4815 5.10616 10.2469 5.17903 10.0245C5.2519 9.80223 5.3686 9.59678 5.52225 9.42035C7.12287 7.46968 9.06194 5.82345 11.2465 4.5606C11.4455 4.44535 11.6652 4.37045 11.8932 4.34018C12.1211 4.30991 12.3528 4.32486 12.575 4.38418C12.7972 4.44351 13.0055 4.54603 13.188 4.6859C13.3705 4.82577 13.5237 5.00024 13.6387 5.19935H13.6405ZM32.25 4.5606C34.435 5.82276 36.3747 7.46839 37.976 9.4186C38.2554 9.77846 38.3835 10.2331 38.3329 10.6859C38.2824 11.1387 38.0573 11.5539 37.7054 11.8434C37.3536 12.1328 36.9027 12.2736 36.4486 12.2358C35.9946 12.198 35.5732 11.9847 35.274 11.6411C33.9386 10.0145 32.3208 8.64211 30.4982 7.58984C30.0965 7.35732 29.8037 6.97474 29.684 6.52627C29.5644 6.0778 29.6278 5.60017 29.8604 5.19847C30.0929 4.79677 30.4755 4.50389 30.924 4.38426C31.3724 4.26464 31.8483 4.32807 32.25 4.5606ZM21.75 14.0001C21.3214 14.0002 20.9077 14.1575 20.5873 14.4423C20.267 14.7272 20.0624 15.1197 20.0122 15.5453L20 15.7501V22.7256C19.9947 23.1141 20.119 23.4956 20.3535 23.8053L20.511 23.9873L24.1965 27.6711C24.5107 27.9883 24.9342 28.1734 25.3805 28.1885C25.8267 28.2037 26.2618 28.0477 26.5968 27.7525C26.9317 27.4574 27.1412 27.0453 27.1824 26.6008C27.2235 26.1562 27.0931 25.7127 26.818 25.3611L26.671 25.1966L23.5 22.0256V15.7501C23.5 15.286 23.3156 14.8408 22.9874 14.5127C22.6592 14.1845 22.2141 14.0001 21.75 14.0001Z" fill="#5B52D8"/>
</svg>
