<svg width="36" height="35" viewBox="0 0 36 35" fill="none" xmlns="http://www.w3.org/2000/svg">
<path opacity="0.3" d="M22.0417 2.91675C22.4284 2.91675 22.7994 3.07039 23.0729 3.34388C23.3464 3.61737 23.5 3.98831 23.5 4.37508V5.83341H24.9583C26.1187 5.83341 27.2315 6.29435 28.0519 7.11482C28.8724 7.93529 29.3333 9.04809 29.3333 10.2084V11.6667H30.7917C31.1784 11.6667 31.5494 11.8204 31.8229 12.0939C32.0964 12.3674 32.25 12.7383 32.25 13.1251C32.25 13.5119 32.0964 13.8828 31.8229 14.1563C31.5494 14.4298 31.1784 14.5834 30.7917 14.5834H29.3333V20.4167H30.7917C31.1784 20.4167 31.5494 20.5704 31.8229 20.8439C32.0964 21.1174 32.25 21.4883 32.25 21.8751C32.25 22.2619 32.0964 22.6328 31.8229 22.9063C31.5494 23.1798 31.1784 23.3334 30.7917 23.3334H29.3333V24.7917C29.3333 25.9521 28.8724 27.0649 28.0519 27.8853C27.2315 28.7058 26.1187 29.1667 24.9583 29.1667H23.5V30.6251C23.5 31.0119 23.3464 31.3828 23.0729 31.6563C22.7994 31.9298 22.4284 32.0834 22.0417 32.0834C21.6549 32.0834 21.284 31.9298 21.0105 31.6563C20.737 31.3828 20.5833 31.0119 20.5833 30.6251V29.1667H14.75V30.6251C14.75 31.0119 14.5964 31.3828 14.3229 31.6563C14.0494 31.9298 13.6785 32.0834 13.2917 32.0834C12.9049 32.0834 12.534 31.9298 12.2605 31.6563C11.987 31.3828 11.8333 31.0119 11.8333 30.6251V29.1667H10.375C9.21469 29.1667 8.10189 28.7058 7.28142 27.8853C6.46095 27.0649 6.00001 25.9521 6.00001 24.7917V23.3334H4.54168C4.1549 23.3334 3.78397 23.1798 3.51048 22.9063C3.23699 22.6328 3.08334 22.2619 3.08334 21.8751C3.08334 21.4883 3.23699 21.1174 3.51048 20.8439C3.78397 20.5704 4.1549 20.4167 4.54168 20.4167H6.00001V14.5834H4.54168C4.1549 14.5834 3.78397 14.4298 3.51048 14.1563C3.23699 13.8828 3.08334 13.5119 3.08334 13.1251C3.08334 12.7383 3.23699 12.3674 3.51048 12.0939C3.78397 11.8204 4.1549 11.6667 4.54168 11.6667H6.00001V10.2084C6.00001 9.04809 6.46095 7.93529 7.28142 7.11482C8.10189 6.29435 9.21469 5.83341 10.375 5.83341H11.8333V4.37508C11.8333 3.98831 11.987 3.61737 12.2605 3.34388C12.534 3.07039 12.9049 2.91675 13.2917 2.91675C13.6785 2.91675 14.0494 3.07039 14.3229 3.34388C14.5964 3.61737 14.75 3.98831 14.75 4.37508V5.83341H20.5833V4.37508C20.5833 3.98831 20.737 3.61737 21.0105 3.34388C21.284 3.07039 21.6549 2.91675 22.0417 2.91675Z" fill="#5B52D8"/>
<path d="M20.5833 11.6667H14.75C13.9765 11.6667 13.2346 11.974 12.6876 12.521C12.1406 13.068 11.8333 13.8099 11.8333 14.5834V20.4167C11.8333 21.1903 12.1406 21.9322 12.6876 22.4791C13.2346 23.0261 13.9765 23.3334 14.75 23.3334H20.5833C21.3569 23.3334 22.0988 23.0261 22.6457 22.4791C23.1927 21.9322 23.5 21.1903 23.5 20.4167V14.5834C23.5 13.8099 23.1927 13.068 22.6457 12.521C22.0988 11.974 21.3569 11.6667 20.5833 11.6667Z" fill="#5B52D8"/>
</svg>
