<svg width="43" height="42" viewBox="0 0 43 42" fill="none" xmlns="http://www.w3.org/2000/svg">
<path opacity="0.2" fill-rule="evenodd" clip-rule="evenodd" d="M19.062 5.74362C19.3752 5.3679 19.7637 5.06199 20.2023 4.84564C20.641 4.62928 21.1202 4.50727 21.6089 4.48748C22.0976 4.4677 22.5851 4.55057 23.0398 4.73076C23.4946 4.91095 23.9065 5.18445 24.249 5.53362L24.438 5.74362L31.319 14.0001H36.5428C36.91 13.9993 37.2733 14.0761 37.6088 14.2255C37.9443 14.3749 38.2445 14.5934 38.4896 14.8669C38.7348 15.1403 38.9195 15.4624 39.0315 15.8122C39.1435 16.1619 39.1804 16.5314 39.1398 16.8964L38.9788 18.2369L38.8038 19.5319L38.6603 20.5014L38.494 21.5426L38.305 22.6364L38.0915 23.7704L37.8535 24.9271C37.7275 25.5105 37.5922 26.0926 37.4475 26.6736C37.0602 28.2108 36.5739 29.7213 35.9915 31.1956L35.6048 32.1406L35.2303 32.9946L34.8768 33.7541L34.7123 34.0936L34.2765 34.9511C33.7165 36.0186 32.6595 36.6486 31.5413 36.7396L31.2613 36.7501H12.2213C11.6095 36.7547 11.0079 36.593 10.4809 36.2823C9.95379 35.9716 9.52102 35.5236 9.22876 34.9861L8.82276 34.1986L8.50776 33.5511L8.34151 33.1924L7.99151 32.4066C7.19228 30.5508 6.54385 28.6336 6.05251 26.6736C5.95785 26.293 5.86685 25.9115 5.77951 25.5291L5.53101 24.3951L5.30876 23.2856L5.11276 22.2129L4.93776 21.1856L4.78551 20.2161L4.65601 19.3184L4.49851 18.1231L4.38301 17.1501L4.35326 16.8824C4.31706 16.5386 4.34959 16.191 4.44896 15.8599C4.54832 15.5287 4.71254 15.2207 4.93206 14.9536C5.15158 14.6866 5.42201 14.4658 5.72763 14.3042C6.03325 14.1426 6.36795 14.0434 6.71226 14.0124L6.95026 14.0001H12.181L19.062 5.74362Z" fill="#5B52D8"/>
<path fill-rule="evenodd" clip-rule="evenodd" d="M21.75 7.9834L16.7363 13.9999H26.7638L21.75 7.9834ZM27.287 21.0244C26.864 20.9538 26.4299 21.041 26.067 21.2694C25.7041 21.4978 25.4376 21.8515 25.3183 22.2634L25.2745 22.4629L24.3995 27.7129C24.3265 28.1532 24.4244 28.6048 24.6733 28.9752C24.9222 29.3457 25.3033 29.6071 25.7385 29.7059C26.1737 29.8047 26.6303 29.7335 27.0148 29.5068C27.3992 29.2801 27.6825 28.9151 27.8068 28.4864L27.8505 28.2869L28.7255 23.0369C28.8014 22.5793 28.6925 22.1103 28.4228 21.7329C28.1531 21.3556 27.7445 21.1007 27.287 21.0244ZM18.1818 22.2634C18.0634 21.8505 17.7973 21.4956 17.4341 21.2662C17.071 21.0368 16.6361 20.949 16.2124 21.0194C15.7887 21.0899 15.4057 21.3137 15.1364 21.6483C14.867 21.9829 14.7301 22.4049 14.7518 22.8339L14.7745 23.0369L15.6495 28.2869L15.6933 28.4864C15.8116 28.8993 16.0778 29.2542 16.4409 29.4836C16.8041 29.713 17.2389 29.8008 17.6626 29.7304C18.0863 29.6599 18.4693 29.436 18.7387 29.1015C19.008 28.7669 19.1449 28.3449 19.1233 27.9159L19.1005 27.7129L18.2255 22.4629L18.1818 22.2634Z" fill="#5B52D8"/>
</svg>
