<svg width="32" height="32" viewBox="0 0 32 32" fill="none" xmlns="http://www.w3.org/2000/svg">
<g clip-path="url(#clip0_721_707)">
<path d="M18.7747 15.737L15.2373 14.0864C14.9286 13.9431 14.675 14.1037 14.675 14.4455V17.5545C14.675 17.8963 14.9286 18.057 15.2373 17.9136L18.7732 16.263C19.0834 16.1181 19.0834 15.8819 18.7747 15.737ZM16.25 0.880005C7.89935 0.880005 1.13 7.64935 1.13 16C1.13 24.3507 7.89935 31.12 16.25 31.12C24.6007 31.12 31.37 24.3507 31.37 16C31.37 7.64935 24.6007 0.880005 16.25 0.880005ZM16.25 22.1425C8.51046 22.1425 8.375 21.4448 8.375 16C8.375 10.5552 8.51046 9.8575 16.25 9.8575C23.9896 9.8575 24.125 10.5552 24.125 16C24.125 21.4448 23.9896 22.1425 16.25 22.1425Z" fill="#454554"/>
</g>
<defs>
<clipPath id="clip0_721_707">
<rect width="31.5" height="31.5" fill="white" transform="translate(0.5 0.25)"/>
</clipPath>
</defs>
</svg>
