<svg width="15" height="16" viewBox="0 0 15 16" fill="none" xmlns="http://www.w3.org/2000/svg">
<g clip-path="url(#clip0_1784_1007)">
<path d="M11.875 15.4999H3.125C1.40188 15.4999 0 14.098 0 12.3749V6.57738C0 5.53676 0.515 4.56801 1.3775 3.98676L5.75187 1.03426C6.81375 0.318008 8.18625 0.318008 9.24813 1.03426L13.6231 3.98676C14.485 4.56801 15 5.53613 15 6.57738V12.3749C15 14.098 13.5981 15.4999 11.875 15.4999ZM7.5 1.74801C7.135 1.74801 6.77 1.85551 6.45125 2.07113L2.07625 5.02301C1.55875 5.37176 1.25 5.95238 1.25 6.57676V12.3743C1.25 13.408 2.09125 14.2493 3.125 14.2493H11.875C12.9087 14.2493 13.75 13.408 13.75 12.3743V6.57738C13.75 5.95301 13.4413 5.37176 12.9244 5.02363L8.54875 2.07113C8.23 1.85551 7.865 1.74801 7.5 1.74801Z" fill="#868AFF"/>
</g>
<defs>
<clipPath id="clip0_1784_1007">
<rect width="15" height="15" fill="white" transform="translate(0 0.5)"/>
</clipPath>
</defs>
</svg>
