<svg width="22" height="22" viewBox="0 0 22 22" fill="none" xmlns="http://www.w3.org/2000/svg">
<path d="M10.9999 11.0001C13.025 11.0001 14.6666 9.35846 14.6666 7.33341C14.6666 5.30837 13.025 3.66675 10.9999 3.66675C8.97487 3.66675 7.33325 5.30837 7.33325 7.33341C7.33325 9.35846 8.97487 11.0001 10.9999 11.0001Z" fill="#5259D8"/>
<path fill-rule="evenodd" clip-rule="evenodd" d="M11.0001 11.9167C7.63589 11.9167 4.87672 14.1351 4.60539 16.9584C4.58155 17.2105 4.78872 17.4167 5.04172 17.4167H16.9584C17.018 17.4183 17.0773 17.4074 17.1324 17.3846C17.1876 17.3618 17.2373 17.3278 17.2784 17.2846C17.3195 17.2414 17.3511 17.19 17.3712 17.1338C17.3912 17.0776 17.3992 17.0179 17.3947 16.9584C17.1234 14.1351 14.3642 11.9167 11.0001 11.9167Z" fill="#5B52D8" fill-opacity="0.25"/>
</svg>
