<svg width="37" height="32" viewBox="0 0 37 32" fill="none" xmlns="http://www.w3.org/2000/svg">
<path d="M30.5684 0.25C34.2637 3.55441 36.5908 8.35764 36.5908 13.7051C36.5906 23.671 28.5118 31.7497 18.5459 31.75C8.5798 31.75 0.500181 23.6711 0.5 13.7051C0.5 8.35791 2.82642 3.5544 6.52148 0.25C9.40728 3.6673 13.7229 5.83887 18.5459 5.83887C23.3685 5.83873 27.6827 3.6669 30.5684 0.25ZM18.5449 22.4961C17.8424 22.4964 17.1396 23.1798 16.6963 23.7158C16.3859 24.0916 16.3629 24.6135 16.6074 25.0352C17.0843 25.8571 17.9201 27.1224 18.5449 27.123C19.1698 27.123 20.0064 25.8573 20.4834 25.0352C20.7279 24.6135 20.7049 24.0916 20.3945 23.7158C19.9511 23.1796 19.2476 22.4961 18.5449 22.4961ZM4.2207 12.6865C5.72341 13.5974 6.98428 14.8571 7.89746 16.3584L8.4043 17.1914L8.72363 17.7725C10.1823 20.4284 13.5769 21.3066 16.1406 19.6914L16.1309 17.6074L5 11.5361L4.2207 12.6865ZM20.8809 17.6074L20.8711 19.6914C23.4348 21.3065 26.8294 20.4284 28.2881 17.7725L28.6074 17.1914L29.1133 16.3584C30.0265 14.8569 31.2881 13.5974 32.791 12.6865L32.0117 11.5361L20.8809 17.6074Z" fill="white"/>
</svg>
