<svg width="20" height="20" viewBox="0 0 20 20" fill="none" xmlns="http://www.w3.org/2000/svg">
<g clip-path="url(#clip0_1853_1443)">
<path d="M17.5835 9.99967C17.5833 5.81166 14.1876 2.41666 9.99951 2.41666C5.81161 2.41684 2.41668 5.81177 2.4165 9.99967C2.4165 14.1877 5.8115 17.5835 9.99951 17.5837C14.1877 17.5837 17.5835 14.1878 17.5835 9.99967ZM19.0835 9.99967C19.0835 15.0163 15.0161 19.0837 9.99951 19.0837C4.98307 19.0835 0.916504 15.0161 0.916504 9.99967C0.91668 4.98334 4.98318 0.91684 9.99951 0.916664C15.016 0.916664 19.0833 4.98323 19.0835 9.99967Z" fill="#5259D8"/>
<path d="M11.9696 7.80306C12.2625 7.51017 12.7372 7.51017 13.0301 7.80306C13.323 8.09595 13.323 8.57071 13.0301 8.86361L9.69713 12.1966C9.40423 12.4895 8.92947 12.4895 8.63658 12.1966L6.96959 10.5306C6.67675 10.2378 6.67686 9.76296 6.96959 9.47005C7.26248 9.17716 7.73724 9.17716 8.03014 9.47005L9.16588 10.6058L11.9696 7.80306Z" fill="#5259D8"/>
</g>
<defs>
<clipPath id="clip0_1853_1443">
<rect width="20" height="20" fill="white"/>
</clipPath>
</defs>
</svg>
