<svg width="1920" height="999" viewBox="0 0 1920 999" fill="none" xmlns="http://www.w3.org/2000/svg">
<g filter="url(#filter0_f_2_703)">
<rect x="318" y="439" width="1284" height="60" rx="30" fill="#5B52D8" fill-opacity="0.4"/>
</g>
<mask id="path-2-inside-1_2_703" fill="white">
<path d="M1146 780C1146 767.85 1155.85 758 1168 758H1379C1391.15 758 1401 767.85 1401 780V958H1146V780Z"/>
</mask>
<path d="M1144 780C1144 766.745 1154.75 756 1168 756H1379C1392.25 756 1403 766.745 1403 780H1399C1399 768.954 1390.05 760 1379 760H1168C1156.95 760 1148 768.954 1148 780H1144ZM1401 958H1146H1401ZM1144 958V780C1144 766.745 1154.75 756 1168 756V760C1156.95 760 1148 768.954 1148 780V958H1144ZM1379 756C1392.25 756 1403 766.745 1403 780V958H1399V780C1399 768.954 1390.05 760 1379 760V756Z" fill="url(#paint0_linear_2_703)" mask="url(#path-2-inside-1_2_703)"/>
<mask id="path-4-inside-2_2_703" fill="white">
<path d="M204 827.962C204 819.126 211.163 811.962 220 811.962H444C452.837 811.962 460 819.126 460 827.962V958H204V827.962Z"/>
</mask>
<path d="M202 827.962C202 818.021 210.059 809.962 220 809.962H444C453.941 809.962 462 818.021 462 827.962H458C458 820.23 451.732 813.962 444 813.962H220C212.268 813.962 206 820.23 206 827.962H202ZM460 958H204H460ZM202 958V827.962C202 818.021 210.059 809.962 220 809.962V813.962C212.268 813.962 206 820.23 206 827.962V958H202ZM444 809.962C453.941 809.962 462 818.021 462 827.962V958H458V827.962C458 820.23 451.732 813.962 444 813.962V809.962Z" fill="url(#paint1_linear_2_703)" mask="url(#path-4-inside-2_2_703)"/>
<mask id="path-6-inside-3_2_703" fill="white">
<path d="M828 857.736C828 845.585 837.85 835.736 850 835.736H1074C1086.15 835.736 1096 845.585 1096 857.736V958H828V857.736Z"/>
</mask>
<path d="M826 857.736C826 844.481 836.745 833.736 850 833.736H1074C1087.25 833.736 1098 844.481 1098 857.736H1094C1094 846.69 1085.05 837.736 1074 837.736H850C838.954 837.736 830 846.69 830 857.736H826ZM1096 958H828H1096ZM826 958V857.736C826 844.481 836.745 833.736 850 833.736V837.736C838.954 837.736 830 846.69 830 857.736V958H826ZM1074 833.736C1087.25 833.736 1098 844.481 1098 857.736V958H1094V857.736C1094 846.69 1085.05 837.736 1074 837.736V833.736Z" fill="url(#paint2_linear_2_703)" mask="url(#path-6-inside-3_2_703)"/>
<rect x="511" y="806.849" width="266" height="77.4717" rx="15" stroke="#12121B" stroke-width="2"/>
<mask id="path-9-inside-4_2_703" fill="white">
<path d="M510 918.302C510 909.465 517.163 902.302 526 902.302H762C770.837 902.302 778 909.465 778 918.302V958H510V918.302Z"/>
</mask>
<path d="M508 918.302C508 908.361 516.059 900.302 526 900.302H762C771.941 900.302 780 908.361 780 918.302H776C776 910.57 769.732 904.302 762 904.302H526C518.268 904.302 512 910.57 512 918.302H508ZM778 958H510H778ZM508 958V918.302C508 908.361 516.059 900.302 526 900.302V904.302C518.268 904.302 512 910.57 512 918.302V958H508ZM762 900.302C771.941 900.302 780 908.361 780 918.302V958H776V918.302C776 910.57 769.732 904.302 762 904.302V900.302Z" fill="url(#paint3_linear_2_703)" mask="url(#path-9-inside-4_2_703)"/>
<mask id="path-11-inside-5_2_703" fill="white">
<path d="M-105 774C-105 765.163 -97.8366 758 -89 758H138C146.837 758 154 765.163 154 774V958H-105V774Z"/>
</mask>
<path d="M-107 774C-107 764.059 -98.9411 756 -89 756H138C147.941 756 156 764.059 156 774H152C152 766.268 145.732 760 138 760H-89C-96.732 760 -103 766.268 -103 774H-107ZM154 958H-105H154ZM-107 958V774C-107 764.059 -98.9411 756 -89 756V760C-96.732 760 -103 766.268 -103 774V958H-107ZM138 756C147.941 756 156 764.059 156 774V958H152V774C152 766.268 145.732 760 138 760V756Z" fill="url(#paint4_linear_2_703)" mask="url(#path-11-inside-5_2_703)"/>
<mask id="path-13-inside-6_2_703" fill="white">
<path d="M1451 844.943C1451 836.107 1458.16 828.943 1467 828.943H1690C1698.84 828.943 1706 836.107 1706 844.943V958H1451V844.943Z"/>
</mask>
<path d="M1449 844.943C1449 835.002 1457.06 826.943 1467 826.943H1690C1699.94 826.943 1708 835.002 1708 844.943H1704C1704 837.211 1697.73 830.943 1690 830.943H1467C1459.27 830.943 1453 837.211 1453 844.943H1449ZM1706 958H1451H1706ZM1449 958V844.943C1449 835.002 1457.06 826.943 1467 826.943V830.943C1459.27 830.943 1453 837.211 1453 844.943V958H1449ZM1690 826.943C1699.94 826.943 1708 835.002 1708 844.943V958H1704V844.943C1704 837.211 1697.73 830.943 1690 830.943V826.943Z" fill="url(#paint5_linear_2_703)" mask="url(#path-13-inside-6_2_703)"/>
<path d="M1779 759H1856C1867.6 759 1877 768.402 1877 780V839.604C1877 851.201 1867.6 860.604 1856 860.604H1779C1767.4 860.604 1758 851.201 1758 839.604V780C1758 768.402 1767.4 759 1779 759Z" stroke="#12121B" stroke-width="2"/>
<path d="M1925 759H2002C2013.6 759 2023 768.402 2023 780V839.604C2023 851.201 2013.6 860.604 2002 860.604H1925C1913.4 860.604 1904 851.201 1904 839.604V780C1904 768.402 1913.4 759 1925 759Z" stroke="url(#paint6_linear_2_703)" stroke-width="2"/>
<mask id="path-17-inside-7_2_703" fill="white">
<path d="M1756 906.126C1756 893.976 1765.85 884.126 1778 884.126H1989C2001.15 884.126 2011 893.976 2011 906.126V958H1756V906.126Z"/>
</mask>
<path d="M1754 906.126C1754 892.871 1764.75 882.126 1778 882.126H1989C2002.25 882.126 2013 892.871 2013 906.126H2009C2009 895.081 2000.05 886.126 1989 886.126H1778C1766.95 886.126 1758 895.081 1758 906.126H1754ZM2011 958H1756H2011ZM1754 958V906.126C1754 892.871 1764.75 882.126 1778 882.126V886.126C1766.95 886.126 1758 895.081 1758 906.126V958H1754ZM1989 882.126C2002.25 882.126 2013 892.871 2013 906.126V958H2009V906.126C2009 895.081 2000.05 886.126 1989 886.126V882.126Z" fill="url(#paint7_linear_2_703)" mask="url(#path-17-inside-7_2_703)"/>
<defs>
<filter id="filter0_f_2_703" x="-182" y="-61" width="2284" height="1060" filterUnits="userSpaceOnUse" color-interpolation-filters="sRGB">
<feFlood flood-opacity="0" result="BackgroundImageFix"/>
<feBlend mode="normal" in="SourceGraphic" in2="BackgroundImageFix" result="shape"/>
<feGaussianBlur stdDeviation="250" result="effect1_foregroundBlur_2_703"/>
</filter>
<linearGradient id="paint0_linear_2_703" x1="1273.5" y1="758" x2="1273.5" y2="958" gradientUnits="userSpaceOnUse">
<stop stop-color="#5B52D8"/>
<stop offset="1" stop-color="#5B52D8" stop-opacity="0.2"/>
</linearGradient>
<linearGradient id="paint1_linear_2_703" x1="332" y1="811.962" x2="332" y2="958" gradientUnits="userSpaceOnUse">
<stop stop-color="#5B52D8"/>
<stop offset="1" stop-color="#5B52D8" stop-opacity="0.2"/>
</linearGradient>
<linearGradient id="paint2_linear_2_703" x1="962" y1="835.736" x2="962" y2="958" gradientUnits="userSpaceOnUse">
<stop stop-color="#12121B"/>
<stop offset="1" stop-color="#12121B" stop-opacity="0.05"/>
</linearGradient>
<linearGradient id="paint3_linear_2_703" x1="644" y1="902.302" x2="644" y2="958" gradientUnits="userSpaceOnUse">
<stop stop-color="#12121B"/>
<stop offset="1" stop-color="#12121B" stop-opacity="0.05"/>
</linearGradient>
<linearGradient id="paint4_linear_2_703" x1="-1.73622e-06" y1="858" x2="154" y2="858" gradientUnits="userSpaceOnUse">
<stop stop-color="#12121B" stop-opacity="0"/>
<stop offset="1" stop-color="#12121B"/>
</linearGradient>
<linearGradient id="paint5_linear_2_703" x1="1578.5" y1="828.943" x2="1578.5" y2="958" gradientUnits="userSpaceOnUse">
<stop stop-color="#12121B"/>
<stop offset="1" stop-color="#12121B" stop-opacity="0.05"/>
</linearGradient>
<linearGradient id="paint6_linear_2_703" x1="1903" y1="809.802" x2="2024" y2="809.802" gradientUnits="userSpaceOnUse">
<stop stop-color="#12121B"/>
<stop offset="1" stop-color="#12121B" stop-opacity="0"/>
</linearGradient>
<linearGradient id="paint7_linear_2_703" x1="1756" y1="921.063" x2="2011" y2="921.063" gradientUnits="userSpaceOnUse">
<stop stop-color="#12121B"/>
<stop offset="1" stop-color="#12121B" stop-opacity="0"/>
</linearGradient>
</defs>
</svg>
