<svg width="15" height="16" viewBox="0 0 15 16" fill="none" xmlns="http://www.w3.org/2000/svg">
<g clip-path="url(#clip0_1950_2874)">
<path d="M7.05847 1.37087L12.8037 7.11611C14.5096 8.822 14.5096 11.5974 12.8037 13.3033C11.0978 15.0092 8.32242 15.0092 6.61653 13.3033L1.31322 7.99999C0.0934651 6.78023 0.0934652 4.80033 1.31322 3.58057C2.53298 2.36082 4.51288 2.36082 5.73264 3.58057L11.0359 8.88387C11.7651 9.61308 11.7651 10.8063 11.0359 11.5355C10.3067 12.2647 9.1135 12.2647 8.38429 11.5355L3.52293 6.67417C3.27987 6.4311 3.27987 6.03335 3.52293 5.79028C3.766 5.54722 4.16375 5.54721 4.40682 5.79028L9.26818 10.6516C9.51124 10.8947 9.90899 10.8947 10.1521 10.6516C10.3951 10.4086 10.3951 10.0108 10.1521 9.76776L4.84876 4.46446C4.11955 3.73525 2.92631 3.73525 2.19711 4.46446C1.4679 5.19366 1.4679 6.3869 2.19711 7.11611L7.50041 12.4194C8.72017 13.6392 10.7001 13.6392 11.9198 12.4194C13.1396 11.1996 13.1396 9.21975 11.9198 7.99999L6.17458 2.25475C5.93152 2.01168 5.93152 1.61393 6.17458 1.37087C6.41765 1.1278 6.8154 1.1278 7.05847 1.37087Z" fill="white"/>
</g>
<defs>
<clipPath id="clip0_1950_2874">
<rect width="15" height="15" fill="white" transform="translate(0 0.5)"/>
</clipPath>
</defs>
</svg>
