<svg width="19" height="20" viewBox="0 0 19 20" fill="none" xmlns="http://www.w3.org/2000/svg">
<rect y="0.75" width="19" height="19" rx="9.5" fill="#5259D8" fill-opacity="0.15"/>
<g clip-path="url(#clip0_1876_1554)">
<path d="M13.2579 8.49769L11.2759 6.51669C11.1357 6.3716 10.9489 6.28045 10.7482 6.25919C10.5476 6.23792 10.3458 6.28789 10.1783 6.40036C10.0795 6.4706 9.99724 6.56155 9.93722 6.66686C9.87721 6.77217 9.84089 6.8893 9.8308 7.01009C9.82071 7.13087 9.83708 7.25241 9.87879 7.36622C9.9205 7.48002 9.98653 7.58336 10.0723 7.66902L10.2696 7.86602C10.3199 7.91661 10.3481 7.98504 10.3481 8.05636C10.3481 8.12768 10.3199 8.19611 10.2696 8.24669L9.56961 8.94669C9.50818 9.00785 9.43196 9.05207 9.34837 9.07502C9.26478 9.09798 9.17666 9.0989 9.09261 9.07769L8.81928 9.00769C8.50407 8.92541 8.1766 8.90068 7.85261 8.93469C7.63969 8.95684 7.43754 9.03939 7.26999 9.17263C7.10244 9.30587 6.97648 9.48423 6.90695 9.68669C6.83079 9.89597 6.81596 10.1226 6.8642 10.3401C6.91244 10.5575 7.02175 10.7566 7.17928 10.914L7.76128 11.5167L5.59761 13.681C5.56578 13.7118 5.54038 13.7486 5.52291 13.7892C5.50544 13.8299 5.49625 13.8736 5.49586 13.9179C5.49548 13.9622 5.50391 14.006 5.52067 14.047C5.53743 14.088 5.56218 14.1252 5.59348 14.1565C5.62478 14.1878 5.662 14.2125 5.70296 14.2293C5.74393 14.2461 5.78782 14.2545 5.83208 14.2541C5.87634 14.2537 5.92008 14.2445 5.96075 14.2271C6.00142 14.2096 6.0382 14.1842 6.06895 14.1524L8.22461 11.9967L8.64128 12.428C8.92374 12.7277 9.31334 12.9034 9.72495 12.9167C9.85801 12.9168 9.99013 12.8943 10.1156 12.85C10.3071 12.7839 10.4753 12.6638 10.5999 12.504C10.7245 12.3443 10.8001 12.1519 10.8176 11.95C10.8513 11.629 10.8272 11.3045 10.7463 10.992L10.6756 10.65C10.6558 10.5666 10.6576 10.4795 10.681 10.397C10.7043 10.3145 10.7484 10.2394 10.8089 10.1787L11.5053 9.48336C11.5594 9.43367 11.6295 9.40485 11.7029 9.40203C11.7352 9.40196 11.7671 9.40832 11.7969 9.42074C11.8267 9.43316 11.8536 9.45139 11.8763 9.47436L12.0449 9.64303C12.1845 9.79198 12.3725 9.88635 12.5753 9.9092C12.7781 9.93205 12.9824 9.88188 13.1516 9.76769C13.2504 9.69747 13.3327 9.60654 13.3927 9.50125C13.4528 9.39596 13.4891 9.27883 13.4993 9.15804C13.5094 9.03725 13.493 8.91571 13.4514 8.80189C13.4097 8.68807 13.3437 8.58471 13.2579 8.49903V8.49769Z" fill="#5259D8"/>
</g>
<defs>
<clipPath id="clip0_1876_1554">
<rect width="8" height="8" fill="white" transform="translate(5.5 6.25)"/>
</clipPath>
</defs>
</svg>
