<svg width="43" height="42" viewBox="0 0 43 42" fill="none" xmlns="http://www.w3.org/2000/svg">
<path opacity="0.2" d="M18.7178 23.5324C17.9758 22.7904 17.0552 22.4894 16.0315 22.3512C15.0637 22.2217 13.844 22.2217 12.381 22.2217H10.4472C9.43225 22.2217 8.5835 22.2217 7.894 22.2864C7.17475 22.3564 6.50275 22.5034 5.8885 22.8814C5.28475 23.2489 4.779 23.7564 4.40975 24.3584C4.03175 24.9744 3.88475 25.6447 3.81475 26.3657C3.75 27.0534 3.75 27.9022 3.75 28.9189V29.0379C3.75 30.5849 3.75 31.8327 3.84625 32.8354C3.94425 33.8714 4.1525 34.7744 4.6495 35.5847C5.1535 36.4072 5.843 37.0967 6.6655 37.6007C7.47575 38.0977 8.37875 38.3059 9.413 38.4057C10.4175 38.5002 11.667 38.5002 13.2122 38.5002H13.3348C14.3498 38.5002 15.1968 38.5002 15.8863 38.4354C16.6073 38.3654 17.2775 38.2184 17.8935 37.8404C18.4955 37.4729 19.0012 36.9654 19.3705 36.3634C19.7485 35.7474 19.8955 35.0754 19.9655 34.3562C20.0302 33.6667 20.0303 32.8179 20.0303 31.8012V29.8692C20.0303 28.4062 20.0303 27.1864 19.9007 26.2187C19.7625 25.1967 19.4598 24.2744 18.7178 23.5324Z" fill="#5B52D8"/>
<path opacity="0.2" d="M23.9616 23.7114C23.2196 24.4534 22.9186 25.374 22.7803 26.3977C22.6508 27.3655 22.6508 28.5852 22.6508 30.0482V31.9819C22.6508 32.9969 22.6508 33.8457 22.7156 34.5352C22.7856 35.2544 22.9326 35.9264 23.3106 36.5407C23.6781 37.1444 24.1856 37.6502 24.7876 38.0194C25.4036 38.3974 26.0738 38.5444 26.7948 38.6144C27.4826 38.6792 28.3313 38.6792 29.3481 38.6792H29.4671C31.0141 38.6792 32.2618 38.6792 33.2646 38.5829C34.3006 38.4849 35.2036 38.2767 36.0138 37.7797C36.8363 37.2757 37.5258 36.5862 38.0298 35.7637C38.5268 34.9534 38.7351 34.0504 38.8348 33.0162C38.9293 32.0117 38.9293 30.7622 38.9293 29.2169V29.0944C38.9293 28.0794 38.9293 27.2324 38.8646 26.5429C38.7946 25.8219 38.6476 25.1517 38.2696 24.5357C37.9021 23.9337 37.3946 23.428 36.7926 23.0587C36.1766 22.6807 35.5046 22.5337 34.7853 22.4637C34.0958 22.399 33.2471 22.3989 32.2303 22.3989H30.2983C28.8353 22.3989 27.6156 22.3989 26.6478 22.5285C25.6258 22.6667 24.7036 22.9694 23.9616 23.7114Z" fill="#5B52D8"/>
<path opacity="0.2" d="M15.8845 3.56475C16.6055 3.63475 17.2758 3.78175 17.8918 4.15975C18.4938 4.52725 18.9995 5.03475 19.3688 5.6385C19.7468 6.25275 19.8938 6.92475 19.9638 7.644C20.0285 8.3335 20.0285 9.18225 20.0285 10.199V12.131C20.0285 13.594 20.0285 14.8137 19.899 15.7815C19.7608 16.8035 19.4598 17.7258 18.7178 18.4678C17.9758 19.2098 17.0552 19.5108 16.0315 19.649C15.0637 19.7785 13.844 19.7785 12.381 19.7785H10.4473C9.43225 19.7785 8.5835 19.7785 7.894 19.7138C7.17475 19.6438 6.50275 19.4968 5.8885 19.1188C5.28603 18.7499 4.77932 18.2438 4.40975 17.6418C4.03175 17.0258 3.88475 16.3555 3.81475 15.6345C3.75 14.945 3.75 14.098 3.75 13.0813V12.9623C3.75 11.4153 3.75 10.1675 3.84625 9.16475C3.94425 8.12875 4.1525 7.22575 4.6495 6.4155C5.1535 5.593 5.843 4.9035 6.6655 4.3995C7.47575 3.9025 8.37875 3.69425 9.413 3.5945C10.4175 3.5 11.667 3.5 13.2123 3.5H13.3348C14.3498 3.5 15.1968 3.5 15.8863 3.56475" fill="#5B52D8"/>
<path opacity="0.2" d="M29.2877 3.5H29.1687C28.1537 3.5 27.305 3.5 26.6137 3.56475C25.8962 3.63475 25.2242 3.78175 24.6082 4.15975C24.0062 4.52725 23.5005 5.03475 23.1312 5.6385C22.7532 6.25275 22.6062 6.92475 22.5362 7.644C22.4715 8.3335 22.4715 9.18225 22.4715 10.199V12.131C22.4715 13.594 22.4715 14.8137 22.601 15.7815C22.7392 16.8035 23.0402 17.7258 23.7822 18.4678C24.5242 19.2098 25.4447 19.5108 26.4685 19.649C27.4362 19.7785 28.656 19.7785 30.119 19.7785H32.0527C33.0677 19.7785 33.9165 19.7785 34.606 19.7138C35.3252 19.6438 35.9972 19.4968 36.6115 19.1188C37.2152 18.7513 37.721 18.2438 38.0902 17.6418C38.4682 17.0258 38.6152 16.3555 38.6852 15.6345C38.75 14.945 38.75 14.098 38.75 13.0813V12.9623C38.75 11.4153 38.75 10.1675 38.6537 9.16475C38.5557 8.12875 38.3475 7.22575 37.8505 6.4155C37.3464 5.59428 36.6557 4.90357 35.8345 4.3995C35.0242 3.9025 34.1212 3.69425 33.087 3.5945C32.0825 3.5 30.833 3.5 29.2877 3.5Z" fill="#5B52D8"/>
<path d="M9.88897 32.7075C10.2722 32.9788 10.813 32.9788 11.8945 32.9788C12.9777 32.9788 13.5185 32.9788 13.9 32.7075C14.0363 32.6131 14.1549 32.4952 14.25 32.3593C14.5195 31.9778 14.5195 31.437 14.5195 30.3538C14.5195 29.2705 14.5195 28.7315 14.2482 28.3483C14.1536 28.2125 14.0357 28.0946 13.9 28C13.5185 27.7288 12.9777 27.7288 11.8945 27.7288C10.8112 27.7288 10.2722 27.7288 9.88897 28C9.75307 28.0951 9.63515 28.2136 9.54072 28.35C9.26947 28.7315 9.26947 29.2723 9.26947 30.3538C9.26947 31.437 9.26947 31.9778 9.54072 32.3593C9.63567 32.4958 9.75419 32.6143 9.89072 32.7093" fill="#5B52D8"/>
<path d="M28.8695 32.9787C29.2528 33.25 29.7935 33.25 30.875 33.25C31.9583 33.25 32.499 33.25 32.8805 32.9787C33.0169 32.8843 33.1354 32.7664 33.2305 32.6305C33.5 32.249 33.5 31.7082 33.5 30.625C33.5 29.5417 33.5 29.0027 33.2288 28.6195C33.1342 28.4837 33.0163 28.3658 32.8805 28.2712C32.499 28 31.9583 28 30.875 28C29.7917 28 29.2528 28 28.8695 28.2712C28.7336 28.3664 28.6157 28.4849 28.5213 28.6212C28.25 29.0027 28.25 29.5435 28.25 30.625C28.25 31.7082 28.25 32.249 28.5213 32.6305C28.6162 32.767 28.7347 32.8855 28.8713 32.9805" fill="#5B52D8"/>
<path d="M11.8945 14.2712C10.813 14.2712 10.2722 14.2712 9.88897 14C9.75307 13.9049 9.63515 13.7864 9.54072 13.65C9.26947 13.2702 9.26947 12.7277 9.26947 11.6462C9.26947 10.563 9.26947 10.0222 9.54072 9.64074C9.63567 9.50421 9.75419 9.38569 9.89072 9.29074C10.2722 9.02124 10.813 9.02124 11.8945 9.02124C12.9777 9.02124 13.5185 9.02124 13.9 9.29249C14.0363 9.38692 14.1549 9.50484 14.25 9.64074C14.5195 10.0222 14.5195 10.563 14.5195 11.6462C14.5195 12.7295 14.5195 13.2702 14.2482 13.6517C14.1536 13.7875 14.0357 13.9054 13.9 14C13.5185 14.2712 12.9777 14.2712 11.8945 14.2712Z" fill="#5B52D8"/>
<path d="M28.6 14C28.9815 14.2712 29.5222 14.2712 30.6055 14.2712C31.6887 14.2712 32.2277 14.2712 32.611 14C32.7467 13.9054 32.8646 13.7875 32.9592 13.6517C33.2305 13.2702 33.2305 12.7277 33.2305 11.6462C33.2305 10.563 33.2305 10.0222 32.9592 9.64074C32.8643 9.50421 32.7457 9.38569 32.6092 9.29074C32.2277 9.02124 31.687 9.02124 30.6055 9.02124C29.5222 9.02124 28.9815 9.02124 28.6 9.29249C28.4636 9.38692 28.3451 9.50484 28.25 9.64074C27.9805 10.0222 27.9805 10.563 27.9805 11.6462C27.9805 12.7295 27.9805 13.2702 28.2517 13.6517C28.3463 13.7875 28.4642 13.9054 28.6 14Z" fill="#5B52D8"/>
</svg>
