<svg width="43" height="42" viewBox="0 0 43 42" fill="none" xmlns="http://www.w3.org/2000/svg">
<path opacity="0.2" d="M26.5 15.75C29.3995 15.75 31.75 13.3995 31.75 10.5C31.75 7.60051 29.3995 5.25 26.5 5.25C23.6005 5.25 21.25 7.60051 21.25 10.5C21.25 13.3995 23.6005 15.75 26.5 15.75Z" fill="#5B52D8"/>
<path opacity="0.2" d="M28.25 35C33.0825 35 37 32.6495 37 29.75C37 26.8505 33.0825 24.5 28.25 24.5C23.4175 24.5 19.5 26.8505 19.5 29.75C19.5 32.6495 23.4175 35 28.25 35Z" fill="#5B52D8"/>
<path d="M16.0018 17.5C19.8677 17.5 23.0018 14.366 23.0018 10.5C23.0018 6.63401 19.8677 3.5 16.0018 3.5C12.1358 3.5 9.00175 6.63401 9.00175 10.5C9.00175 14.366 12.1358 17.5 16.0018 17.5Z" fill="#5B52D8"/>
<path d="M16.0018 36.7517C22.7672 36.7517 28.2518 33.6177 28.2518 29.7517C28.2518 25.8857 22.7672 22.7517 16.0018 22.7517C9.23626 22.7517 3.75175 25.8857 3.75175 29.7517C3.75175 33.6177 9.23626 36.7517 16.0018 36.7517Z" fill="#5B52D8"/>
</svg>
