<svg width="36" height="35" viewBox="0 0 36 35" fill="none" xmlns="http://www.w3.org/2000/svg">
<path d="M31.4583 24.0624C31.4583 25.4161 30.9206 26.7144 29.9634 27.6716C29.0061 28.6288 27.7079 29.1666 26.3542 29.1666C25.0005 29.1666 23.7022 28.6288 22.745 27.6716C21.7878 26.7144 21.25 25.4161 21.25 24.0624C21.25 22.7087 21.7878 21.4104 22.745 20.4532C23.7022 19.496 25.0005 18.9583 26.3542 18.9583C27.7079 18.9583 29.0061 19.496 29.9634 20.4532C30.9206 21.4104 31.4583 22.7087 31.4583 24.0624Z" fill="#5B52D8"/>
<path fill-rule="evenodd" clip-rule="evenodd" d="M2.65625 14.5833C2.65625 14.2932 2.77148 14.015 2.9766 13.8099C3.18172 13.6047 3.45992 13.4895 3.75 13.4895H32.9167C33.2067 13.4895 33.4849 13.6047 33.6901 13.8099C33.8952 14.015 34.0104 14.2932 34.0104 14.5833C34.0104 14.8733 33.8952 15.1515 33.6901 15.3566C33.4849 15.5618 33.2067 15.677 32.9167 15.677H3.75C3.45992 15.677 3.18172 15.5618 2.9766 15.3566C2.77148 15.1515 2.65625 14.8733 2.65625 14.5833Z" fill="#5B52D8"/>
<path opacity="0.3" d="M6.9408 13.4896L7.56205 11.0031C8.35684 7.81958 8.75496 6.22854 9.94205 5.30104C11.1291 4.375 12.7698 4.375 16.051 4.375H20.6156C23.8968 4.375 25.5375 4.375 26.7245 5.30104C27.9116 6.22854 28.3083 7.81958 29.1045 11.0031L29.7273 13.4896H6.9408Z" fill="#5B52D8"/>
<path d="M15.4166 24.0624C15.4166 24.7327 15.2846 25.3964 15.0281 26.0157C14.7716 26.635 14.3956 27.1976 13.9217 27.6716C13.4477 28.1456 12.885 28.5215 12.2658 28.7781C11.6465 29.0346 10.9828 29.1666 10.3125 29.1666C9.64219 29.1666 8.97847 29.0346 8.3592 28.7781C7.73993 28.5215 7.17725 28.1456 6.70329 27.6716C6.22932 27.1976 5.85335 26.635 5.59684 26.0157C5.34034 25.3964 5.20831 24.7327 5.20831 24.0624C5.20831 22.7087 5.74607 21.4104 6.70329 20.4532C7.66051 19.496 8.95877 18.9583 10.3125 18.9583C11.6662 18.9583 12.9645 19.496 13.9217 20.4532C14.8789 21.4104 15.4166 22.7087 15.4166 24.0624Z" fill="#5B52D8"/>
<path opacity="0.5" d="M15.2475 25.3706C15.4608 24.5644 15.4733 23.7182 15.284 22.906L15.8877 22.6042C16.6471 22.2245 17.4844 22.0269 18.3333 22.0269C19.1823 22.0269 20.0196 22.2245 20.779 22.6042L21.3812 22.9046C21.1924 23.7169 21.2054 24.5631 21.4192 25.3692L19.8004 24.5598C19.3449 24.3321 18.8426 24.2136 18.3333 24.2136C17.8241 24.2136 17.3218 24.3321 16.8662 24.5598L15.2475 25.3706Z" fill="#5B52D8"/>
</svg>
