<svg width="36" height="35" viewBox="0 0 36 35" fill="none" xmlns="http://www.w3.org/2000/svg">
<path d="M3.82059 7.65197C3.85902 7.51346 3.92436 7.38388 4.01289 7.27065C4.10143 7.15742 4.21141 7.06274 4.33656 6.99204C4.46171 6.92134 4.59956 6.876 4.74224 6.85862C4.88492 6.84123 5.02963 6.85214 5.16809 6.89071L7.65164 7.57905C8.30965 7.7582 8.9101 8.10457 9.39462 8.58449C9.87913 9.0644 10.2312 9.66153 10.4166 10.3178L13.5535 21.6724L13.7839 22.4701C14.714 22.8129 15.4977 23.4653 16.0035 24.3178L16.4556 24.1778L29.391 20.8163C29.5301 20.7801 29.6749 20.7717 29.8172 20.7915C29.9595 20.8112 30.0965 20.8588 30.2204 20.9315C30.3443 21.0043 30.4527 21.1007 30.5393 21.2153C30.626 21.3299 30.6892 21.4604 30.7254 21.5995C30.7616 21.7385 30.77 21.8833 30.7503 22.0256C30.7305 22.1679 30.6829 22.3049 30.6102 22.4288C30.5375 22.5528 30.4411 22.6611 30.3264 22.7478C30.2118 22.8344 30.0813 22.8976 29.9423 22.9338L17.055 26.2822L16.5737 26.4309C16.565 28.283 15.286 29.9776 13.3508 30.4793C11.0321 31.083 8.64768 29.7472 8.02643 27.4984C7.40518 25.2497 8.78184 22.9353 11.1006 22.333C11.2163 22.3038 11.3315 22.2786 11.4462 22.2572L8.30789 10.8997C8.22302 10.6081 8.06433 10.3433 7.84717 10.131C7.63001 9.91872 7.36174 9.76605 7.0683 9.6878L4.5833 8.99801C4.44482 8.95973 4.31524 8.89455 4.20196 8.80618C4.08868 8.71781 3.99392 8.60799 3.92309 8.48299C3.85227 8.35799 3.80676 8.22027 3.78917 8.07768C3.77158 7.93509 3.78226 7.79043 3.82059 7.65197Z" fill="#5B52D8"/>
<path opacity="0.3" d="M14.4475 12.7312L15.1985 15.4481C15.9058 18.0075 16.2587 19.2879 17.2985 19.8698C18.3383 20.4531 19.6581 20.1089 22.2977 19.4235L25.0977 18.6944C27.7373 18.0089 29.057 17.6662 29.6579 16.6585C30.2587 15.6494 29.9058 14.3689 29.197 11.8096L28.4475 9.09414C27.7402 6.53331 27.3858 5.25289 26.3475 4.67102C25.3062 4.08768 23.9864 4.43185 21.3468 5.11873L18.5468 5.84498C15.9073 6.53039 14.5875 6.87456 13.9881 7.88373C13.3873 8.89144 13.7402 10.1719 14.4475 12.7312Z" fill="#5B52D8"/>
</svg>
