<svg width="22" height="22" viewBox="0 0 22 22" fill="none" xmlns="http://www.w3.org/2000/svg">
<path d="M5.06006 10.9939C5.06006 14.715 7.8578 16.5214 9.6134 17.2877C10.0893 17.4956 10.3275 17.5999 11.0001 17.5999V8.35986L5.06006 10.3399V10.9939Z" fill="#454555"/>
<path opacity="0.25" d="M12.3867 17.2877C14.1423 16.5208 16.9401 14.7157 16.9401 10.994V10.3399L11.0001 8.3599V17.5999C11.6733 17.5999 11.9109 17.4956 12.3867 17.2877ZM8.91314 4.9312L8.53496 5.0599C6.55034 5.7397 5.55836 6.0796 5.30954 6.43402C5.06006 6.7891 5.06006 7.8451 5.06006 9.95512V10.3399L11.0001 8.3599V4.3999C10.4648 4.3999 9.94736 4.57678 8.91314 4.9312Z" fill="#454555"/>
<path d="M13.4651 5.0599L13.0869 4.9312C12.0527 4.57678 11.5359 4.3999 11 4.3999V8.3599L16.94 10.3399V9.95512C16.94 7.84444 16.94 6.7891 16.6905 6.43402C16.4417 6.0796 15.4497 5.73904 13.4651 5.0599Z" fill="#454555"/>
</svg>
