<svg width="15" height="16" viewBox="0 0 15 16" fill="none" xmlns="http://www.w3.org/2000/svg">
<g clip-path="url(#clip0_1784_1137)">
<path d="M14.8975 5.99616C14.7697 5.58922 14.5142 5.23423 14.169 4.98368C13.8238 4.73313 13.4071 4.60033 12.9806 4.60491H10.25L9.42062 2.01991C9.2902 1.61301 9.03392 1.25804 8.68873 1.0062C8.34354 0.754358 7.92729 0.618652 7.5 0.618652C7.07271 0.618652 6.65645 0.754358 6.31127 1.0062C5.96608 1.25804 5.7098 1.61301 5.57937 2.01991L4.75 4.60491H2.01937C1.59421 4.60552 1.18012 4.74046 0.836236 4.99048C0.492353 5.24049 0.236274 5.59278 0.104574 5.99703C-0.0271252 6.40128 -0.0277081 6.8368 0.102909 7.2414C0.233526 7.646 0.488661 7.99898 0.831873 8.24991L3.05437 9.87491L2.20937 12.4918C2.07282 12.8977 2.07109 13.3368 2.20444 13.7437C2.3378 14.1506 2.59909 14.5036 2.94937 14.7499C3.29366 15.0041 3.71087 15.1403 4.13884 15.1382C4.56682 15.1361 4.98265 14.9957 5.32437 14.738L7.5 13.1368L9.67625 14.7362C10.0199 14.9889 10.4349 15.1262 10.8615 15.1283C11.2881 15.1304 11.7044 14.9972 12.0505 14.7477C12.3966 14.4983 12.6547 14.1456 12.7877 13.7402C12.9207 13.3349 12.9217 12.8978 12.7906 12.4918L11.9456 9.87491L14.1706 8.24991C14.5178 8.00213 14.7759 7.64916 14.9068 7.24325C15.0377 6.83734 15.0345 6.40007 14.8975 5.99616ZM13.4331 7.24054L10.8431 9.13366C10.7367 9.21127 10.6576 9.32049 10.617 9.44574C10.5763 9.571 10.5763 9.70589 10.6169 9.83116L11.6012 12.8749C11.6511 13.0293 11.6506 13.1955 11.6 13.3496C11.5494 13.5037 11.4513 13.6378 11.3196 13.7326C11.188 13.8275 11.0297 13.8781 10.8675 13.8773C10.7053 13.8764 10.5475 13.8242 10.4169 13.728L7.87 11.853C7.76273 11.7742 7.6331 11.7317 7.5 11.7317C7.3669 11.7317 7.23727 11.7742 7.13 11.853L4.58312 13.728C4.45255 13.8255 4.29433 13.8788 4.13141 13.8803C3.96849 13.8818 3.80934 13.8313 3.67702 13.7363C3.5447 13.6412 3.44609 13.5065 3.3955 13.3516C3.3449 13.1967 3.34495 13.0298 3.39562 12.8749L4.38312 9.83116C4.4237 9.70589 4.42367 9.571 4.38304 9.44574C4.34241 9.32049 4.26326 9.21127 4.15687 9.13366L1.56687 7.24054C1.43644 7.14503 1.33952 7.01075 1.28996 6.85688C1.2404 6.703 1.24074 6.5374 1.29093 6.38372C1.34111 6.23005 1.43858 6.09616 1.5694 6.00119C1.70022 5.90622 1.85771 5.85502 2.01937 5.85491H5.20687C5.3392 5.85491 5.4681 5.81291 5.57503 5.73496C5.68195 5.65701 5.76138 5.54714 5.80187 5.42116L6.77062 2.40179C6.82035 2.24728 6.91782 2.11253 7.049 2.01694C7.18018 1.92135 7.33831 1.86985 7.50062 1.86985C7.66294 1.86985 7.82106 1.92135 7.95225 2.01694C8.08343 2.11253 8.1809 2.24728 8.23062 2.40179L9.19937 5.42116C9.23986 5.54714 9.31929 5.65701 9.42622 5.73496C9.53314 5.81291 9.66205 5.85491 9.79437 5.85491H12.9819C13.1435 5.85502 13.301 5.90622 13.4318 6.00119C13.5627 6.09616 13.6601 6.23005 13.7103 6.38372C13.7605 6.5374 13.7608 6.703 13.7113 6.85688C13.6617 7.01075 13.5648 7.14503 13.4344 7.24054H13.4331Z" fill="#868AFF"/>
</g>
<defs>
<clipPath id="clip0_1784_1137">
<rect width="15" height="15" fill="white" transform="translate(0 0.5)"/>
</clipPath>
</defs>
</svg>
