<svg width="25" height="25" viewBox="0 0 25 25" fill="none" xmlns="http://www.w3.org/2000/svg">
<g clip-path="url(#clip0_1783_2673)">
<path d="M24.8292 9.16051C24.6161 8.48228 24.1904 7.89063 23.615 7.47305C23.0397 7.05546 22.3452 6.83413 21.6344 6.84176H17.0833L15.701 2.53343C15.4837 1.85526 15.0565 1.26365 14.4812 0.843913C13.9059 0.424175 13.2121 0.197998 12.5 0.197998C11.7878 0.197998 11.0941 0.424175 10.5188 0.843913C9.94346 1.26365 9.51632 1.85526 9.29895 2.53343L7.91665 6.84176H3.36561C2.65701 6.84277 1.96685 7.06768 1.39372 7.48437C0.820579 7.90106 0.39378 8.48821 0.17428 9.16196C-0.0452189 9.8357 -0.0461904 10.5616 0.171505 11.2359C0.3892 11.9103 0.814426 12.4985 1.38645 12.9168L5.09061 15.6251L3.68228 19.9866C3.45469 20.663 3.4518 21.3949 3.67406 22.0731C3.89631 22.7513 4.33181 23.3396 4.91561 23.7501C5.48942 24.1738 6.18477 24.4008 6.89806 24.3973C7.61136 24.3937 8.30441 24.1598 8.87395 23.7303L12.5 21.0616L16.1271 23.7272C16.6998 24.1485 17.3914 24.3773 18.1025 24.3808C18.8135 24.3842 19.5073 24.1622 20.0841 23.7465C20.661 23.3308 21.0911 22.7428 21.3128 22.0673C21.5344 21.3917 21.5362 20.6632 21.3177 19.9866L19.9094 15.6251L23.6177 12.9168C24.1963 12.5038 24.6265 11.9155 24.8447 11.239C25.0628 10.5625 25.0574 9.83369 24.8292 9.16051ZM22.3885 11.2345L18.0719 14.3897C17.8946 14.519 17.7626 14.7011 17.6949 14.9098C17.6272 15.1186 17.6272 15.3434 17.6948 15.5522L19.3354 20.6251C19.4184 20.8824 19.4177 21.1594 19.3334 21.4163C19.249 21.6731 19.0854 21.8966 18.8661 22.0547C18.6467 22.2127 18.3829 22.2971 18.1125 22.2957C17.8421 22.2943 17.5792 22.2072 17.3614 22.047L13.1167 18.922C12.9379 18.7906 12.7218 18.7198 12.5 18.7198C12.2781 18.7198 12.0621 18.7906 11.8833 18.922L7.63853 22.047C7.42091 22.2094 7.15721 22.2983 6.88568 22.3007C6.61415 22.3032 6.34888 22.2191 6.12835 22.0607C5.90782 21.9022 5.74347 21.6777 5.65915 21.4196C5.57482 21.1614 5.5749 20.8832 5.65936 20.6251L7.3052 15.5522C7.37282 15.3434 7.37277 15.1186 7.30505 14.9098C7.23734 14.7011 7.10541 14.519 6.92811 14.3897L2.61145 11.2345C2.39405 11.0753 2.23252 10.8515 2.14993 10.595C2.06733 10.3386 2.06789 10.0626 2.15153 9.80645C2.23517 9.55032 2.39762 9.32718 2.61566 9.1689C2.83369 9.01062 3.09618 8.92529 3.36561 8.9251H8.67811C8.89865 8.92509 9.11349 8.85509 9.2917 8.72517C9.46991 8.59526 9.60229 8.41214 9.66978 8.20218L11.2844 3.16989C11.3672 2.91237 11.5297 2.68779 11.7483 2.52848C11.967 2.36916 12.2305 2.28333 12.501 2.28333C12.7716 2.28333 13.0351 2.36916 13.2537 2.52848C13.4724 2.68779 13.6348 2.91237 13.7177 3.16989L15.3323 8.20218C15.3998 8.41214 15.5321 8.59526 15.7104 8.72517C15.8886 8.85509 16.1034 8.92509 16.3239 8.9251H21.6364C21.9059 8.92529 22.1684 9.01062 22.3864 9.1689C22.6044 9.32718 22.7669 9.55032 22.8505 9.80645C22.9342 10.0626 22.9347 10.3386 22.8521 10.595C22.7695 10.8515 22.608 11.0753 22.3906 11.2345H22.3885Z" fill="#5B52D8"/>
</g>
<defs>
<clipPath id="clip0_1783_2673">
<rect width="25" height="25" fill="white"/>
</clipPath>
</defs>
</svg>
