<svg width="25" height="25" viewBox="0 0 25 25" fill="none" xmlns="http://www.w3.org/2000/svg">
<g clip-path="url(#clip0_1783_2667)">
<path d="M1.38228 12.9168L5.09061 15.6251L3.68228 19.9866C3.45469 20.663 3.4518 21.3949 3.67406 22.0731C3.89631 22.7513 4.33181 23.3396 4.91561 23.7501C5.48942 24.1738 6.18477 24.4008 6.89806 24.3973C7.61136 24.3937 8.30441 24.1598 8.87395 23.7303L12.5 21.0616L16.1271 23.7272C16.6998 24.1485 17.3914 24.3773 18.1025 24.3808C18.8135 24.3842 19.5073 24.1622 20.0841 23.7465C20.661 23.3308 21.0911 22.7428 21.3128 22.0673C21.5344 21.3917 21.5362 20.6632 21.3177 19.9866L19.9094 15.6251L23.6177 12.9168C24.1897 12.4985 24.6149 11.9103 24.8326 11.2359C25.0503 10.5616 25.0494 9.8357 24.8299 9.16196C24.6104 8.48821 24.1836 7.90106 23.6104 7.48437C23.0373 7.06768 22.3471 6.84277 21.6385 6.84176H17.0833L15.701 2.53343C15.4837 1.85526 15.0565 1.26365 14.4812 0.843913C13.9059 0.424175 13.2121 0.197998 12.5 0.197998C11.7878 0.197998 11.0941 0.424175 10.5188 0.843913C9.94346 1.26365 9.51632 1.85526 9.29895 2.53343L7.91665 6.84176H3.36561C2.65701 6.84277 1.96685 7.06768 1.39372 7.48437C0.820579 7.90106 0.39378 8.48821 0.17428 9.16196C-0.0452189 9.8357 -0.0461904 10.5616 0.171505 11.2359C0.3892 11.9103 0.814426 12.4985 1.38645 12.9168H1.38228Z" fill="#5B52D8"/>
</g>
<defs>
<clipPath id="clip0_1783_2667">
<rect width="25" height="25" fill="white"/>
</clipPath>
</defs>
</svg>
