<svg width="22" height="22" viewBox="0 0 22 22" fill="none" xmlns="http://www.w3.org/2000/svg">
<path d="M4.32418 14.827C4.38845 15.3063 4.62099 15.751 4.98417 16.0891C5.34734 16.4272 5.81991 16.6389 6.32542 16.6901C7.83284 16.84 9.39752 17.0003 11 17.0003C12.6036 17.0003 14.1661 16.84 15.6746 16.6901C16.1802 16.6389 16.6527 16.4272 17.0159 16.0891C17.3791 15.751 17.6116 15.3063 17.6759 14.827C17.838 13.5904 18.0001 12.3107 18.0001 11.0001C18.0001 9.68959 17.838 8.40987 17.6759 7.17328C17.6116 6.69397 17.3791 6.24929 17.0159 5.91118C16.6527 5.57308 16.1802 5.36132 15.6746 5.31017C14.1661 5.16022 12.6036 5 11 5C9.39644 5 7.83392 5.16022 6.32542 5.31017C5.81991 5.36132 5.34734 5.57308 4.98417 5.91118C4.62099 6.24929 4.38845 6.69397 4.32418 7.17328C4.16209 8.40987 4 9.68959 4 11.0001C4 12.3107 4.16209 13.5904 4.32418 14.827Z" fill="#5C5D73" fill-opacity="0.25"/>
<path fill-rule="evenodd" clip-rule="evenodd" d="M4.25488 7.70847L9.24395 11.447C9.74428 11.8219 10.3628 12.0257 10.9999 12.0257C11.637 12.0257 12.2555 11.8219 12.7558 11.447L17.7449 7.70847L17.6758 7.1744C17.6366 6.8827 17.5351 6.60168 17.3775 6.34863L11.9206 10.4384C11.3803 10.8431 10.6195 10.8431 10.0803 10.4384L4.62228 6.34863C4.46668 6.59513 4.36294 6.87552 4.32404 7.17337L4.25488 7.70847Z" fill="#454555"/>
</svg>
