<svg width="33" height="28" viewBox="0 0 33 28" fill="none" xmlns="http://www.w3.org/2000/svg">
<path d="M26.7275 0C30.0122 2.93725 32.0811 7.20675 32.0811 11.96C32.0809 20.8187 24.8988 28 16.04 28C7.18145 27.9998 0.000180913 20.8185 0 11.96C0 7.20719 2.06739 2.93723 5.35156 0C7.91665 3.03783 11.7528 4.96767 16.04 4.96777C20.327 4.96777 24.1624 3.03744 26.7275 0ZM16.04 19.7744C15.4444 19.7746 14.8488 20.3265 14.4531 20.791C14.1369 21.1622 14.115 21.6862 14.3623 22.1064C14.7922 22.8365 15.5035 23.8863 16.04 23.8867C16.5766 23.8867 17.2888 22.8366 17.7188 22.1064C17.9659 21.6863 17.944 21.1621 17.6279 20.791C17.2322 20.3264 16.6358 19.7744 16.04 19.7744ZM3.30664 11.0547C4.64253 11.8644 5.76442 12.9837 6.57617 14.3184L7.02637 15.0586L7.30957 15.5752C8.60622 17.9361 11.6244 18.7171 13.9033 17.2812L13.8945 15.4287L4 10.0322L3.30664 11.0547ZM18.1162 15.4287L18.1074 17.2812C20.3863 18.717 23.4036 17.936 24.7002 15.5752L24.9844 15.0586L25.4346 14.3184C26.2463 12.9839 27.3674 11.8643 28.7031 11.0547L28.0107 10.0322L18.1162 15.4287Z" fill="#454554"/>
</svg>
