<svg width="32" height="32" viewBox="0 0 32 32" fill="none" xmlns="http://www.w3.org/2000/svg">
<path d="M16.25 0.25C24.9485 0.25 32 7.30152 32 16C32 24.6985 24.9485 31.75 16.25 31.75C7.55152 31.75 0.5 24.6985 0.5 16C0.5 7.30152 7.55152 0.25 16.25 0.25ZM18.6123 9.7002C18.5917 9.70053 18.5721 9.70892 18.5576 9.72363C18.4159 9.98351 18.2499 10.3222 18.1396 10.582C16.8869 10.3932 15.6131 10.3932 14.3604 10.582C14.2501 10.3143 14.0842 9.98351 13.9346 9.72363C13.9267 9.70798 13.9034 9.70026 13.8799 9.7002C12.6986 9.90495 11.5719 10.2588 10.5166 10.7471C10.5089 10.7473 10.5009 10.755 10.4932 10.7627C8.35116 13.9678 7.76038 17.0868 8.05176 20.1738C8.05178 20.1896 8.06045 20.205 8.07617 20.2129C9.49356 21.2523 10.8556 21.8824 12.2021 22.2998C12.2258 22.3077 12.2499 22.2999 12.2578 22.2842C12.5727 21.8512 12.8556 21.3943 13.0996 20.9141C13.1154 20.8826 13.0999 20.8506 13.0684 20.8428C12.6196 20.6696 12.1946 20.4647 11.7773 20.2285C11.7458 20.2128 11.7459 20.1662 11.7695 20.1426C11.8561 20.0796 11.9427 20.0083 12.0293 19.9453C12.045 19.9298 12.0683 19.9297 12.084 19.9375C14.793 21.1739 17.7151 21.1739 20.3926 19.9375C20.4083 19.9298 20.4316 19.9297 20.4473 19.9453C20.5339 20.0162 20.6204 20.0795 20.707 20.1504C20.7385 20.174 20.7385 20.2206 20.6992 20.2363C20.2899 20.4804 19.8569 20.6774 19.4082 20.8506C19.3767 20.8584 19.3682 20.8982 19.376 20.9219C19.6279 21.4022 19.9117 21.8589 20.2188 22.292C20.2424 22.2999 20.2664 22.3077 20.29 22.2998C21.6444 21.8824 23.0065 21.2523 24.4238 20.2129C24.4396 20.205 24.4482 20.1896 24.4482 20.1738C24.7947 16.6065 23.8732 13.5111 22.0068 10.7627C21.999 10.7548 21.9903 10.7471 21.9746 10.7471C20.9274 10.2589 19.7934 9.90491 18.6123 9.7002ZM13.5098 14.9521C14.3444 14.9523 15.0059 15.7087 14.998 16.6221C14.998 17.5433 14.3365 18.2918 13.5098 18.292C12.6986 18.292 12.0215 17.5434 12.0215 16.6221C12.0215 15.7007 12.6829 14.9521 13.5098 14.9521ZM18.998 14.9521C19.8328 14.9521 20.4942 15.7086 20.4863 16.6221C20.4863 17.5434 19.8328 18.292 18.998 18.292C18.187 18.2918 17.5098 17.5433 17.5098 16.6221C17.5098 15.7008 18.1713 14.9523 18.998 14.9521Z" fill="#454554"/>
</svg>
