<svg width="9" height="10" viewBox="0 0 9 10" fill="none" xmlns="http://www.w3.org/2000/svg">
<g clip-path="url(#clip0_2010_2656)">
<path d="M8.72748 3.02859L6.49773 0.799967C6.33995 0.636744 6.1298 0.534198 5.90406 0.510273C5.67831 0.486347 5.45133 0.542566 5.26285 0.669092C5.15173 0.748119 5.05918 0.850436 4.99166 0.968907C4.92415 1.08738 4.88329 1.21915 4.87193 1.35504C4.86058 1.49092 4.87901 1.62765 4.92593 1.75568C4.97285 1.88371 5.04713 1.99997 5.1436 2.09634L5.3656 2.31797C5.42216 2.37488 5.45391 2.45185 5.45391 2.53209C5.45391 2.61233 5.42216 2.68931 5.3656 2.74622L4.5781 3.53372C4.50899 3.60252 4.42324 3.65226 4.3292 3.67809C4.23516 3.70392 4.13603 3.70495 4.04148 3.68109L3.73398 3.60234C3.37937 3.50978 3.01096 3.48196 2.64648 3.52022C2.40694 3.54513 2.17952 3.63801 1.99103 3.7879C1.80253 3.93779 1.66082 4.13845 1.5826 4.36622C1.49692 4.60166 1.48024 4.85666 1.53451 5.10125C1.58879 5.34585 1.71176 5.56986 1.88898 5.74697L2.54373 6.42497L0.1096 8.85984C0.0737839 8.89443 0.0452156 8.93581 0.0255622 8.98157C0.00590887 9.02732 -0.00443597 9.07652 -0.00486865 9.12632C-0.00530133 9.17611 0.00418681 9.22549 0.0230421 9.27157C0.0418975 9.31766 0.0697424 9.35953 0.104952 9.39474C0.140162 9.42995 0.182031 9.4578 0.228118 9.47665C0.274204 9.49551 0.323583 9.50499 0.373376 9.50456C0.423168 9.50413 0.472375 9.49378 0.518127 9.47413C0.563878 9.45448 0.605258 9.42591 0.63985 9.39009L3.06498 6.96497L3.53373 7.45022C3.8515 7.78736 4.2898 7.985 4.75285 7.99997C4.90255 8.00014 5.05118 7.97478 5.19235 7.92497C5.40779 7.85062 5.59705 7.71541 5.73722 7.53571C5.87738 7.35601 5.96244 7.13952 5.9821 6.91247C6.02005 6.55131 5.99287 6.18627 5.90185 5.83472L5.82235 5.44997C5.80006 5.35613 5.80214 5.25814 5.82839 5.16534C5.85465 5.07253 5.9042 4.98797 5.97235 4.91972L6.75573 4.13747C6.81666 4.08157 6.89547 4.04914 6.9781 4.04597C7.01438 4.04589 7.05031 4.05305 7.08379 4.06702C7.11727 4.081 7.14763 4.1015 7.1731 4.12734L7.36285 4.31709C7.51981 4.48467 7.73135 4.59084 7.95952 4.61654C8.18768 4.64224 8.41754 4.5858 8.60785 4.45734C8.719 4.37835 8.81158 4.27605 8.87913 4.1576C8.94668 4.03914 8.98758 3.90737 8.99897 3.77149C9.01035 3.6356 8.99196 3.49886 8.94507 3.37082C8.89818 3.24277 8.82393 3.12649 8.72748 3.03009V3.02859Z" fill="#FFD4B6"/>
</g>
<defs>
<clipPath id="clip0_2010_2656">
<rect width="9" height="9" fill="white" transform="translate(0 0.5)"/>
</clipPath>
</defs>
</svg>
