<svg width="15" height="15" viewBox="0 0 15 15" fill="none" xmlns="http://www.w3.org/2000/svg">
<g clip-path="url(#clip0_1853_1828)">
<path d="M0.624867 15C0.790614 15 0.949559 14.9341 1.06674 14.8169L5.20362 10.68L5.98362 11.4875C6.57151 12.1088 7.38178 12.4715 8.23674 12.4962C8.52176 12.4971 8.80481 12.4491 9.07362 12.3544C9.48896 12.2114 9.85385 11.9509 10.124 11.6045C10.3942 11.2581 10.5579 10.8408 10.5955 10.4031C10.6633 9.76928 10.6163 9.12841 10.4567 8.51125L10.323 7.86C10.2977 7.75586 10.2995 7.64694 10.3284 7.54373C10.3573 7.44052 10.4123 7.34647 10.488 7.27062L11.4799 6.27812C11.519 6.23885 11.5719 6.21642 11.6274 6.21562C11.6468 6.212 11.6669 6.21389 11.6853 6.22107C11.7038 6.22824 11.7199 6.24043 11.7317 6.25625C12.0457 6.58916 12.468 6.79922 12.9229 6.84871C13.3778 6.8982 13.8354 6.78387 14.2136 6.52625C14.4355 6.36805 14.6203 6.16339 14.755 5.9265C14.8898 5.68962 14.9712 5.42621 14.9938 5.15462C15.0163 4.88304 14.9794 4.6098 14.8856 4.35394C14.7917 4.09808 14.6433 3.86575 14.4505 3.67312L11.3749 0.596248C11.0591 0.272561 10.6395 0.0701754 10.1896 0.0244762C9.73971 -0.0212229 9.28806 0.0926719 8.91362 0.346248C8.69167 0.504393 8.50686 0.709021 8.37207 0.94588C8.23727 1.18274 8.15573 1.44614 8.13312 1.71773C8.11052 1.98931 8.14738 2.26257 8.24116 2.51845C8.33494 2.77434 8.48337 3.00671 8.67612 3.19937L8.72362 3.24687C8.75942 3.28293 8.77951 3.33168 8.77951 3.3825C8.77951 3.43331 8.75942 3.48206 8.72362 3.51812L7.72362 4.51812C7.6469 4.59467 7.5516 4.64996 7.44707 4.67856C7.34254 4.70716 7.23237 4.70809 7.12737 4.68125L6.61674 4.55062C5.98865 4.38659 5.33611 4.33726 4.69049 4.405C4.23259 4.45242 3.79779 4.62977 3.43735 4.91613C3.07691 5.20249 2.80585 5.58593 2.65612 6.02125C2.49272 6.46859 2.4605 6.95331 2.56325 7.41834C2.666 7.88338 2.89945 8.30939 3.23612 8.64625L4.33487 9.78375L0.182992 13.9331C0.0956109 14.0205 0.0361069 14.1319 0.0120022 14.2531C-0.0121025 14.3743 0.000274316 14.5 0.0475681 14.6142C0.0948619 14.7283 0.174949 14.8259 0.277705 14.8946C0.380461 14.9633 0.501273 15 0.624867 15ZM3.83424 6.4375C3.90467 6.22457 4.03531 6.03663 4.21035 5.89642C4.38539 5.75621 4.59733 5.66974 4.82049 5.6475C4.96438 5.63252 5.10895 5.62501 5.25362 5.625C5.60819 5.62502 5.96129 5.6706 6.30424 5.76062L6.81862 5.89187C7.13375 5.9716 7.46417 5.96832 7.77766 5.88233C8.09115 5.79635 8.37701 5.6306 8.60737 5.40125L9.60737 4.40125C9.8772 4.13062 10.0287 3.76404 10.0287 3.38187C10.0287 2.99971 9.8772 2.63313 9.60737 2.3625L9.55987 2.315C9.49515 2.25044 9.44539 2.17247 9.41408 2.08658C9.38278 2.0007 9.37069 1.909 9.37868 1.81794C9.38666 1.72687 9.41453 1.63867 9.4603 1.55955C9.50608 1.48043 9.56866 1.41231 9.64362 1.36C9.77698 1.27926 9.9341 1.24699 10.0885 1.26862C10.2429 1.29026 10.3851 1.36447 10.4911 1.47875L13.5686 4.55625C13.6333 4.62081 13.6831 4.69878 13.7144 4.78466C13.7457 4.87054 13.7578 4.96225 13.7498 5.05331C13.7418 5.14437 13.714 5.23257 13.6682 5.31169C13.6224 5.39082 13.5598 5.45894 13.4849 5.51125C13.3501 5.59309 13.1909 5.62538 13.0349 5.60256C12.8788 5.57975 12.7356 5.50325 12.6299 5.38625C12.5013 5.25366 12.3474 5.14818 12.1774 5.07604C12.0073 5.0039 11.8246 4.96657 11.6399 4.96625C11.2502 4.96802 10.8766 5.12134 10.598 5.39375L9.60674 6.38562C9.38166 6.61086 9.21765 6.88971 9.13017 7.19589C9.04269 7.50206 9.03463 7.82547 9.10674 8.13562L9.24362 8.79687C9.36973 9.27901 9.40805 9.77991 9.35674 10.2756C9.3418 10.4778 9.26779 10.6711 9.14389 10.8316C9.01999 10.992 8.85168 11.1125 8.65987 11.1781C8.34015 11.2622 8.00316 11.254 7.68791 11.1544C7.37267 11.0549 7.09208 10.8681 6.87862 10.6156L4.12862 7.77187C3.95714 7.60086 3.83827 7.38427 3.7861 7.14778C3.73393 6.91128 3.75064 6.66479 3.83424 6.4375Z" fill="#454454"/>
</g>
<defs>
<clipPath id="clip0_1853_1828">
<rect width="15" height="15" fill="white"/>
</clipPath>
</defs>
</svg>
