<svg width="9" height="9" viewBox="0 0 9 9" fill="none" xmlns="http://www.w3.org/2000/svg">
<g clip-path="url(#clip0_2010_2818)">
<path d="M8.72748 2.52859L6.49773 0.299967C6.33995 0.136744 6.1298 0.0341982 5.90406 0.0102728C5.67831 -0.0136526 5.45133 0.0425661 5.26285 0.169092C5.15173 0.248119 5.05918 0.350436 4.99166 0.468907C4.92415 0.587378 4.88329 0.719151 4.87193 0.855037C4.86058 0.990923 4.87901 1.12765 4.92593 1.25568C4.97285 1.38371 5.04713 1.49997 5.1436 1.59634L5.3656 1.81797C5.42216 1.87488 5.45391 1.95185 5.45391 2.03209C5.45391 2.11233 5.42216 2.18931 5.3656 2.24622L4.5781 3.03372C4.50899 3.10252 4.42324 3.15226 4.3292 3.17809C4.23516 3.20392 4.13603 3.20495 4.04148 3.18109L3.73398 3.10234C3.37937 3.00978 3.01096 2.98196 2.64648 3.02022C2.40694 3.04513 2.17952 3.13801 1.99103 3.2879C1.80253 3.43779 1.66082 3.63845 1.5826 3.86622C1.49692 4.10166 1.48024 4.35666 1.53451 4.60125C1.58879 4.84585 1.71176 5.06986 1.88898 5.24697L2.54373 5.92497L0.1096 8.35984C0.0737839 8.39443 0.0452156 8.43581 0.0255622 8.48157C0.00590887 8.52732 -0.00443597 8.57652 -0.00486865 8.62632C-0.00530133 8.67611 0.00418681 8.72549 0.0230421 8.77157C0.0418975 8.81766 0.0697424 8.85953 0.104952 8.89474C0.140162 8.92995 0.182031 8.9578 0.228118 8.97665C0.274204 8.99551 0.323583 9.00499 0.373376 9.00456C0.423168 9.00413 0.472375 8.99378 0.518127 8.97413C0.563878 8.95448 0.605258 8.92591 0.63985 8.89009L3.06498 6.46497L3.53373 6.95022C3.8515 7.28736 4.2898 7.485 4.75285 7.49997C4.90255 7.50014 5.05118 7.47478 5.19235 7.42497C5.40779 7.35062 5.59705 7.21541 5.73722 7.03571C5.87738 6.85601 5.96244 6.63952 5.9821 6.41247C6.02005 6.05131 5.99287 5.68627 5.90185 5.33472L5.82235 4.94997C5.80006 4.85613 5.80214 4.75814 5.82839 4.66534C5.85465 4.57253 5.9042 4.48797 5.97235 4.41972L6.75573 3.63747C6.81666 3.58157 6.89547 3.54914 6.9781 3.54597C7.01438 3.54589 7.05031 3.55305 7.08379 3.56702C7.11727 3.581 7.14763 3.6015 7.1731 3.62734L7.36285 3.81709C7.51981 3.98467 7.73135 4.09084 7.95952 4.11654C8.18768 4.14224 8.41754 4.0858 8.60785 3.95734C8.719 3.87835 8.81158 3.77605 8.87913 3.6576C8.94668 3.53914 8.98758 3.40737 8.99897 3.27149C9.01035 3.1356 8.99196 2.99886 8.94507 2.87082C8.89818 2.74277 8.82393 2.62649 8.72748 2.53009V2.52859Z" fill="white"/>
</g>
<defs>
<clipPath id="clip0_2010_2818">
<rect width="9" height="9" fill="white"/>
</clipPath>
</defs>
</svg>
