<svg width="15" height="15" viewBox="0 0 15 15" fill="none" xmlns="http://www.w3.org/2000/svg">
<path d="M11.875 13.125H3.125C1.40188 13.125 0 11.7231 0 10V9.42375C0 9.07875 0.28 8.79875 0.625 8.79875C0.64 8.79875 0.658125 8.79938 0.67625 8.80063C1.3675 8.7875 1.92625 8.22063 1.92625 7.52563C1.92625 6.83063 1.3675 6.26312 0.67625 6.25C0.658125 6.25125 0.64 6.25187 0.625625 6.25187C0.280625 6.25187 0.000625 5.97188 0.000625 5.62688V4.99938C0 3.27688 1.40188 1.875 3.125 1.875H11.875C13.5981 1.875 15 3.27688 15 5V5.625C15 5.97 14.72 6.25 14.375 6.25C13.6856 6.25 13.125 6.81063 13.125 7.5C13.125 8.18937 13.6856 8.75 14.375 8.75C14.72 8.75 15 9.03 15 9.375V10C15 11.7231 13.5981 13.125 11.875 13.125ZM1.25 9.97937V10C1.25 11.0337 2.09125 11.875 3.125 11.875H11.875C12.9087 11.875 13.75 11.0337 13.75 10V9.92125C12.6731 9.64312 11.875 8.66313 11.875 7.5C11.875 6.33687 12.6731 5.3575 13.75 5.07875V5C13.75 3.96625 12.9087 3.125 11.875 3.125H3.125C2.09125 3.125 1.25 3.96625 1.25 5V5.07187C2.35437 5.34187 3.17625 6.33938 3.17625 7.52563C3.17625 8.71188 2.35437 9.70937 1.25 9.97937Z" fill="#454554"/>
</svg>
