<svg width="15" height="16" viewBox="0 0 15 16" fill="none" xmlns="http://www.w3.org/2000/svg">
<g clip-path="url(#clip0_1784_1096)">
<path d="M7.5 10.5C7.00555 10.5 6.5222 10.3534 6.11107 10.0787C5.69995 9.80397 5.37952 9.41353 5.1903 8.95671C5.00108 8.49989 4.95157 7.99723 5.04804 7.51228C5.1445 7.02732 5.3826 6.58187 5.73223 6.23223C6.08186 5.8826 6.52732 5.6445 7.01227 5.54804C7.49723 5.45157 7.99989 5.50108 8.45671 5.6903C8.91352 5.87952 9.30397 6.19995 9.57867 6.61108C9.85338 7.0222 10 7.50555 10 8C10 8.66304 9.73661 9.29893 9.26777 9.76777C8.79893 10.2366 8.16304 10.5 7.5 10.5ZM7.5 6.75C7.25277 6.75 7.0111 6.82331 6.80554 6.96066C6.59998 7.09802 6.43976 7.29324 6.34515 7.52165C6.25054 7.75005 6.22579 8.00139 6.27402 8.24386C6.32225 8.48634 6.4413 8.70907 6.61612 8.88388C6.79093 9.0587 7.01366 9.17775 7.25614 9.22598C7.49861 9.27421 7.74995 9.24946 7.97835 9.15485C8.20676 9.06024 8.40199 8.90003 8.53934 8.69446C8.67669 8.4889 8.75 8.24723 8.75 8C8.75 7.66848 8.6183 7.35054 8.38388 7.11612C8.14946 6.8817 7.83152 6.75 7.5 6.75ZM11.25 14.875C11.25 13.8804 10.8549 12.9266 10.1517 12.2234C9.44839 11.5201 8.49456 11.125 7.5 11.125C6.50544 11.125 5.55161 11.5201 4.84835 12.2234C4.14509 12.9266 3.75 13.8804 3.75 14.875C3.75 15.0408 3.81585 15.1997 3.93306 15.3169C4.05027 15.4342 4.20924 15.5 4.375 15.5C4.54076 15.5 4.69973 15.4342 4.81694 15.3169C4.93415 15.1997 5 15.0408 5 14.875C5 14.212 5.26339 13.5761 5.73223 13.1072C6.20107 12.6384 6.83696 12.375 7.5 12.375C8.16304 12.375 8.79893 12.6384 9.26777 13.1072C9.73661 13.5761 10 14.212 10 14.875C10 15.0408 10.0658 15.1997 10.1831 15.3169C10.3003 15.4342 10.4592 15.5 10.625 15.5C10.7908 15.5 10.9497 15.4342 11.0669 15.3169C11.1842 15.1997 11.25 15.0408 11.25 14.875ZM11.25 5.5C10.7555 5.5 10.2722 5.35338 9.86107 5.07868C9.44995 4.80397 9.12952 4.41352 8.9403 3.95671C8.75108 3.49989 8.70157 2.99723 8.79804 2.51228C8.8945 2.02732 9.1326 1.58187 9.48223 1.23223C9.83186 0.882603 10.2773 0.644501 10.7623 0.548038C11.2472 0.451575 11.7499 0.501083 12.2067 0.690302C12.6635 0.879521 13.054 1.19995 13.3287 1.61108C13.6034 2.0222 13.75 2.50555 13.75 3C13.75 3.66304 13.4866 4.29893 13.0178 4.76777C12.5489 5.23661 11.913 5.5 11.25 5.5ZM11.25 1.75C11.0028 1.75 10.7611 1.82331 10.5555 1.96066C10.35 2.09802 10.1898 2.29324 10.0951 2.52165C10.0005 2.75005 9.97579 3.00139 10.024 3.24386C10.0722 3.48634 10.1913 3.70907 10.3661 3.88388C10.5409 4.0587 10.7637 4.17775 11.0061 4.22598C11.2486 4.27421 11.4999 4.24946 11.7284 4.15485C11.9568 4.06024 12.152 3.90003 12.2893 3.69446C12.4267 3.4889 12.5 3.24723 12.5 3C12.5 2.66848 12.3683 2.35054 12.1339 2.11612C11.8995 1.8817 11.5815 1.75 11.25 1.75ZM15 9.875C14.999 8.88074 14.6036 7.92749 13.9006 7.22445C13.1975 6.5214 12.2443 6.12599 11.25 6.125C11.0842 6.125 10.9253 6.19085 10.8081 6.30806C10.6908 6.42527 10.625 6.58424 10.625 6.75C10.625 6.91576 10.6908 7.07473 10.8081 7.19194C10.9253 7.30915 11.0842 7.375 11.25 7.375C11.913 7.375 12.5489 7.63839 13.0178 8.10723C13.4866 8.57607 13.75 9.21196 13.75 9.875C13.75 10.0408 13.8158 10.1997 13.9331 10.3169C14.0503 10.4342 14.2092 10.5 14.375 10.5C14.5408 10.5 14.6997 10.4342 14.8169 10.3169C14.9342 10.1997 15 10.0408 15 9.875ZM3.75 5.5C3.25555 5.5 2.7722 5.35338 2.36107 5.07868C1.94995 4.80397 1.62952 4.41352 1.4403 3.95671C1.25108 3.49989 1.20157 2.99723 1.29804 2.51228C1.3945 2.02732 1.6326 1.58187 1.98223 1.23223C2.33186 0.882603 2.77732 0.644501 3.26227 0.548038C3.74723 0.451575 4.24989 0.501083 4.70671 0.690302C5.16352 0.879521 5.55397 1.19995 5.82867 1.61108C6.10338 2.0222 6.25 2.50555 6.25 3C6.25 3.66304 5.98661 4.29893 5.51777 4.76777C5.04893 5.23661 4.41304 5.5 3.75 5.5ZM3.75 1.75C3.50277 1.75 3.2611 1.82331 3.05554 1.96066C2.84998 2.09802 2.68976 2.29324 2.59515 2.52165C2.50054 2.75005 2.47579 3.00139 2.52402 3.24386C2.57225 3.48634 2.6913 3.70907 2.86612 3.88388C3.04093 4.0587 3.26366 4.17775 3.50614 4.22598C3.74861 4.27421 3.99995 4.24946 4.22835 4.15485C4.45676 4.06024 4.65199 3.90003 4.78934 3.69446C4.92669 3.4889 5 3.24723 5 3C5 2.66848 4.8683 2.35054 4.63388 2.11612C4.39946 1.8817 4.08152 1.75 3.75 1.75ZM1.25 9.875C1.25 9.21196 1.51339 8.57607 1.98223 8.10723C2.45107 7.63839 3.08696 7.375 3.75 7.375C3.91576 7.375 4.07473 7.30915 4.19194 7.19194C4.30915 7.07473 4.375 6.91576 4.375 6.75C4.375 6.58424 4.30915 6.42527 4.19194 6.30806C4.07473 6.19085 3.91576 6.125 3.75 6.125C2.75574 6.12599 1.80249 6.5214 1.09945 7.22445C0.3964 7.92749 0.000992769 8.88074 0 9.875C0 10.0408 0.065848 10.1997 0.183058 10.3169C0.300269 10.4342 0.45924 10.5 0.625 10.5C0.79076 10.5 0.949732 10.4342 1.06694 10.3169C1.18415 10.1997 1.25 10.0408 1.25 9.875Z" fill="#868AFF"/>
</g>
<defs>
<clipPath id="clip0_1784_1096">
<rect width="15" height="15" fill="white" transform="translate(0 0.5)"/>
</clipPath>
</defs>
</svg>
