<svg width="15" height="15" viewBox="0 0 15 15" fill="none" xmlns="http://www.w3.org/2000/svg">
<g clip-path="url(#clip0_1808_1923)">
<path d="M5.625 7.5C7.69313 7.5 9.375 5.81813 9.375 3.75C9.375 1.68188 7.69313 0 5.625 0C3.55688 0 1.875 1.68188 1.875 3.75C1.875 5.81813 3.55688 7.5 5.625 7.5ZM5.625 1.25C7.00375 1.25 8.125 2.37125 8.125 3.75C8.125 5.12875 7.00375 6.25 5.625 6.25C4.24625 6.25 3.125 5.12875 3.125 3.75C3.125 2.37125 4.24625 1.25 5.625 1.25ZM6.71875 10.1375C6.36375 10.0463 5.99563 10 5.625 10C3.2125 10 1.25 11.9625 1.25 14.375C1.25 14.72 0.97 15 0.625 15C0.28 15 0 14.72 0 14.375C0 11.2738 2.52375 8.75 5.625 8.75C6.10125 8.75 6.57438 8.80938 7.03125 8.9275C7.36563 9.01375 7.56625 9.35438 7.48063 9.68875C7.395 10.0231 7.05563 10.2238 6.71938 10.1381L6.71875 10.1375ZM14.4506 7.42438C13.7419 6.71563 12.5069 6.71563 11.7988 7.42438L7.60688 11.6163C7.135 12.0881 6.87438 12.7163 6.87438 13.3844V14.3756C6.87438 14.7206 7.15438 15.0006 7.49938 15.0006H8.49063C9.15875 15.0006 9.78625 14.74 10.2581 14.2681L14.45 10.0763C14.8044 9.72188 14.9994 9.25125 14.9994 8.75C14.9994 8.24875 14.8044 7.77813 14.4506 7.42438ZM13.5663 9.19188L9.37375 13.3838C9.13813 13.62 8.82438 13.75 8.49 13.75H8.12375V13.3838C8.12375 13.05 8.25375 12.7363 8.49 12.5L12.6825 8.30813C12.9181 8.07188 13.33 8.07188 13.5663 8.30813C13.6844 8.42563 13.7494 8.5825 13.7494 8.75C13.7494 8.9175 13.6844 9.07375 13.5663 9.19188Z" fill="#5259D8"/>
</g>
<defs>
<clipPath id="clip0_1808_1923">
<rect width="15" height="15" fill="white"/>
</clipPath>
</defs>
</svg>
