<svg width="18" height="18" viewBox="0 0 18 18" fill="none" xmlns="http://www.w3.org/2000/svg">
<path d="M10.1527 8.75388L8.18747 7.83687C8.01597 7.75725 7.8751 7.8465 7.8751 8.03638V9.76363C7.8751 9.9535 8.01597 10.0428 8.18747 9.96313L10.1518 9.04613C10.3242 8.96562 10.3242 8.83438 10.1527 8.75388ZM8.7501 0.5C4.11085 0.5 0.350098 4.26075 0.350098 8.9C0.350098 13.5393 4.11085 17.3 8.7501 17.3C13.3893 17.3 17.1501 13.5393 17.1501 8.9C17.1501 4.26075 13.3893 0.5 8.7501 0.5ZM8.7501 12.3125C4.45035 12.3125 4.3751 11.9249 4.3751 8.9C4.3751 5.87513 4.45035 5.4875 8.7501 5.4875C13.0498 5.4875 13.1251 5.87513 13.1251 8.9C13.1251 11.9249 13.0498 12.3125 8.7501 12.3125Z" fill="#5259D8"/>
</svg>
